<svg version="1.1" id="Layer_1" xmlns="http://www.w3.org/2000/svg" xmlns:xlink="http://www.w3.org/1999/xlink" x="0px" y="0px"
	 width="100%" viewBox="0 0 1080 886" enable-background="new 0 0 1080 886" xml:space="preserve">
<path fill="#0F0F0F" opacity="1.000000" stroke="none" 
	d="
M665.000000,887.000000 
	C443.361450,887.000000 222.222870,887.000000 1.042158,887.000000 
	C1.042158,591.732300 1.042158,296.464600 1.042158,1.098453 
	C360.888611,1.098453 720.777222,1.098453 1080.833008,1.098453 
	C1080.833008,296.333252 1080.833008,591.666626 1080.833008,887.000000 
	C942.464539,887.000000 803.982239,887.000000 665.000000,887.000000 
M633.894836,621.640991 
	C634.036011,621.577271 634.177185,621.513489 634.934875,621.360962 
	C635.483093,621.636597 636.031250,621.912231 636.348633,622.814270 
	C636.587524,623.359497 636.826416,623.904663 637.065247,624.449890 
	C637.701599,624.001831 638.338013,623.553833 639.695923,623.023926 
	C642.448059,624.492859 645.200195,625.961792 648.120911,628.009521 
	C651.189575,629.060120 652.561707,627.627869 652.969727,624.323914 
	C653.076965,624.039429 653.282166,623.885681 654.294312,623.902161 
	C654.877991,623.030823 655.461670,622.159485 656.308289,620.714844 
	C656.882874,620.147583 657.457458,619.580322 658.687134,618.972595 
	C659.112244,618.295654 659.537415,617.618713 659.995972,616.999512 
	C659.995972,616.999512 659.940979,616.961365 660.595398,617.016479 
	C660.996277,616.319336 661.397156,615.622253 661.984192,614.260681 
	C664.435608,610.854248 666.887085,607.447876 669.859436,603.981689 
	C669.962036,603.334412 670.064636,602.687134 670.105530,601.282959 
	C670.254333,600.541504 670.403137,599.800110 671.127625,598.941589 
	C673.735718,597.126587 672.946655,595.891357 670.219788,594.303650 
	C670.222778,593.849854 670.225708,593.396057 670.609314,592.615723 
	C670.208374,592.060425 669.807373,591.505127 668.918335,590.476746 
	C668.138245,588.895081 667.358215,587.313354 666.775146,584.994934 
	C666.184021,584.329895 665.592896,583.664856 664.518616,582.598877 
	C663.950378,581.509338 663.382080,580.419861 663.076660,578.803040 
	C662.619568,578.285278 662.162537,577.767456 661.912903,577.078064 
	C661.912903,577.078064 661.737000,577.281921 661.883545,576.421692 
	C661.689636,574.540771 661.650574,572.617310 661.156189,570.819031 
	C661.069092,570.502563 659.075928,570.710144 657.379150,571.139587 
	C656.224426,571.561768 655.069641,571.983887 653.946960,571.690979 
	C653.760803,569.960815 653.610229,568.346924 651.426758,570.447815 
	C650.080811,571.742859 648.675598,573.179749 647.014099,573.903931 
	C642.613647,575.822083 638.014648,577.282410 633.598267,579.167603 
	C632.513855,579.630493 631.825867,581.021912 630.889832,582.852295 
	C630.880981,584.580872 630.872192,586.309448 630.327820,588.664795 
	C630.524658,596.103027 630.721436,603.541199 631.089600,611.693970 
	C630.648315,612.785583 630.207031,613.877197 629.223938,615.007996 
	C629.097961,615.658936 628.972046,616.309875 629.032776,617.653259 
	C629.672729,618.576904 630.312683,619.500488 631.168823,621.033020 
	C631.922363,621.095947 632.675903,621.158813 633.906982,621.158508 
	C633.906982,621.158508 634.276306,621.467712 633.894836,621.640991 
M343.653687,545.280212 
	C343.192902,545.955200 342.732117,546.630188 342.086304,547.106262 
	C342.086304,547.106262 342.303223,547.269836 341.442291,547.135681 
	C337.966125,546.421143 334.489960,545.706604 331.000000,545.000000 
	C331.000000,545.000000 331.007385,544.986938 331.012207,544.476501 
	C330.327454,544.273254 329.642700,544.070068 328.406464,544.135071 
	C328.202728,544.151611 327.998993,544.168091 327.106171,543.994263 
	C325.066376,544.685181 323.026550,545.376099 320.075867,546.098877 
	C316.764374,546.250793 313.452911,546.402771 309.887390,545.997742 
	C307.271210,545.750549 304.781952,545.747742 303.626190,549.598877 
	C288.538879,560.551575 285.966797,576.156189 288.288239,593.041565 
	C290.362000,608.125183 299.084747,618.668884 313.063538,625.384460 
	C315.055115,625.706604 317.046692,626.028748 319.699249,626.243286 
	C320.111908,626.383545 320.524567,626.523804 321.072144,627.140442 
	C321.708771,627.117371 322.345398,627.094299 323.902557,626.969604 
	C327.605499,626.993286 331.308441,627.016968 335.374756,627.502136 
	C336.266174,627.143250 337.157623,626.784424 338.677979,626.154602 
	C339.129395,626.142212 339.580841,626.129822 340.433044,626.582703 
	C343.789642,626.404602 347.619812,627.201416 349.101074,622.053955 
	C349.755219,621.711426 350.409363,621.368896 351.796997,621.060425 
	C352.840149,619.985474 353.883331,618.910461 355.023438,617.360352 
	C355.224365,617.067200 355.502441,616.926025 356.601135,616.923096 
	C357.649475,615.096252 358.697815,613.269409 359.785065,610.769348 
	C360.289001,609.524963 360.792969,608.280640 361.927795,606.882751 
	C361.966217,605.592163 362.004669,604.301514 361.838715,602.225220 
	C361.970642,601.159302 362.102570,600.093323 362.765472,598.956238 
	C362.591278,598.294861 362.417053,597.633423 361.954895,596.263550 
	C361.966858,595.509888 361.978821,594.756226 362.502472,593.570923 
	C361.736786,590.883972 364.262146,586.741089 358.830414,585.725525 
	C358.830414,585.725525 358.848816,585.322327 358.945221,584.568848 
	C357.996979,583.698914 357.048767,582.828918 355.513458,581.746155 
	C354.668823,580.846802 353.824188,579.947510 352.947174,578.320801 
	C352.644440,576.912109 352.341736,575.503479 352.176300,573.601074 
	C352.444061,573.397766 352.711823,573.194519 353.709595,572.986877 
	C354.483612,571.723145 355.257660,570.459412 356.280121,568.598511 
	C357.421295,567.372131 358.562469,566.145691 360.441162,564.932739 
	C364.697968,561.917786 364.869690,559.044189 360.510773,556.950073 
	C358.115356,555.799377 355.185028,555.762024 352.137177,555.177673 
	C352.137177,555.177673 352.026581,554.833496 352.058472,554.158142 
	C351.171051,550.914001 352.122375,546.776672 347.860413,545.111023 
	C347.860413,545.111023 347.774902,545.275574 347.824402,544.614685 
	C347.058136,543.978821 346.291870,543.342957 345.525574,542.707092 
	C345.139435,543.593750 344.753296,544.480408 344.026917,545.000549 
	C344.026917,545.000549 344.357727,545.374817 343.653687,545.280212 
M800.537170,550.054077 
	C805.108826,556.786621 809.713501,563.497070 814.241272,570.258972 
	C817.560852,575.216492 821.646484,576.880859 825.456482,574.684753 
	C829.512573,572.346802 830.524292,567.466858 827.422180,562.456909 
	C823.223206,555.675415 819.048584,548.808228 814.128906,542.555725 
	C792.606934,515.203247 764.406128,496.676514 733.135254,482.414154 
	C724.288330,478.379181 715.190674,474.893799 705.818420,470.994263 
	C707.173950,468.984131 708.347839,467.203888 709.560852,465.450714 
	C719.013367,451.789856 721.259033,436.915955 716.007568,421.276886 
	C710.692200,405.447662 699.169312,394.386963 685.905823,385.034973 
	C680.124634,380.958740 673.965698,377.418304 667.513062,373.340515 
	C668.850952,372.633301 669.618469,372.033295 670.485168,371.797638 
	C697.542847,364.439087 725.051819,359.593506 753.046204,358.014313 
	C785.620300,356.176788 817.959900,357.784332 849.525574,366.978638 
	C874.071777,374.128387 896.336060,385.150421 912.889221,405.494904 
	C915.354431,408.524628 918.337341,410.559174 921.793335,407.629517 
	C925.337708,404.625000 923.414307,401.341705 921.029297,398.450592 
	C910.702820,385.932831 898.069824,376.278900 883.656494,369.008270 
	C852.516663,353.300140 818.946289,347.812958 784.577881,346.905212 
	C740.269836,345.734894 697.013550,352.801422 654.604248,365.470673 
	C652.591553,366.071960 650.033264,365.701324 647.949951,365.062592 
	C639.369690,362.432068 630.974182,359.161102 622.329285,356.786163 
	C598.970032,350.368958 575.106201,346.545685 550.917542,345.988464 
	C532.127747,345.555603 513.138916,345.235718 494.537903,347.417450 
	C473.967316,349.830200 453.743652,355.180023 433.349915,359.153290 
	C431.325989,359.547607 428.963226,359.857269 427.106293,359.208527 
	C392.786560,347.217651 357.448334,340.623779 321.183807,338.652832 
	C288.113831,336.855530 255.285889,338.447388 222.869873,345.571686 
	C198.679108,350.888275 175.507614,358.959167 154.285934,372.042023 
	C151.079254,374.018921 148.061279,376.327606 150.464340,380.356567 
	C152.854111,384.363251 156.399841,382.914276 159.616714,380.992767 
	C160.044083,380.737488 160.460709,380.459564 160.905472,380.238831 
	C169.983887,375.733887 178.819153,370.623657 188.192215,366.849152 
	C218.327469,354.713654 250.031631,349.865845 282.264069,348.372192 
	C323.663910,346.453674 364.325409,351.546448 404.250580,362.579865 
	C406.982361,363.334778 409.596985,364.513489 413.354065,365.895264 
	C406.029999,369.490662 399.831085,372.269836 393.880524,375.505646 
	C377.713593,384.296967 363.023071,394.867493 353.132629,410.904480 
	C344.895111,424.261383 343.934082,438.565155 348.838928,453.093323 
	C350.974121,459.417816 354.882050,465.143799 358.107941,471.379425 
	C357.693268,471.585907 357.157288,471.897278 356.588928,472.129333 
	C338.883636,479.359375 320.909149,486.000580 303.535583,493.954498 
	C282.602478,503.538025 263.327515,516.039856 245.637100,530.851379 
	C244.200684,532.054016 242.295761,534.087708 242.462418,535.519348 
	C242.790497,538.337585 243.782394,541.614502 245.666473,543.587463 
	C248.348511,546.395874 251.767792,544.994812 254.727585,542.951660 
	C266.764923,534.642212 278.501160,525.835938 290.956696,518.205750 
	C314.921478,503.524994 341.018158,493.496124 367.658661,484.817078 
	C370.666046,483.837341 372.824890,484.378876 375.398315,486.328339 
	C380.418549,490.131378 385.695953,493.682098 391.192474,496.754852 
	C422.079071,514.021545 455.753265,522.582520 490.555481,526.055847 
	C536.445740,530.635681 582.054321,528.426208 626.729797,515.557861 
	C649.760559,508.923981 671.547607,499.766479 690.813599,485.166595 
	C692.174500,484.135254 694.986572,483.893127 696.630310,484.539429 
	C709.302917,489.522003 722.092224,494.309448 734.392395,500.116760 
	C759.628235,512.031433 782.081177,527.857300 800.537170,550.054077 
M568.181091,595.757446 
	C562.122437,598.332031 556.185547,601.260071 549.976868,603.399170 
	C540.373108,606.708191 537.301636,613.766541 542.585754,621.807678 
	C543.197266,622.738159 544.514771,623.204773 545.504944,623.886475 
	C546.131042,622.700378 547.226929,621.542969 547.301514,620.323120 
	C547.613831,615.215027 549.031311,614.146606 553.720032,616.098694 
	C555.558105,616.863953 557.240723,617.995667 559.060120,618.813843 
	C565.084656,621.523010 570.987854,625.948914 577.212524,626.477173 
	C592.025574,627.734436 605.648743,622.836182 616.361328,612.338379 
	C625.896606,602.994263 624.028625,587.322449 613.272339,579.505859 
	C611.721313,578.378784 609.993713,577.494629 607.613586,576.053406 
	C611.649292,573.585693 615.195435,571.520996 618.606873,569.253723 
	C619.398926,568.727356 620.255493,567.431641 620.135254,566.632446 
	C620.003845,565.759766 618.904236,564.616028 617.999756,564.343506 
	C611.730774,562.454956 607.149963,556.328186 607.182922,549.872009 
	C607.189819,548.519043 606.773193,546.870605 605.919678,545.934570 
	C605.514343,545.489929 603.524109,546.197754 602.420898,546.732361 
	C597.489624,549.122192 592.441772,551.348511 587.786499,554.205078 
	C584.435608,556.261230 582.576904,556.047546 579.872070,552.989075 
	C570.258118,542.118530 547.401550,542.019226 541.865479,560.567749 
	C540.668091,564.579773 540.718201,569.105164 540.909485,573.361938 
	C541.335693,582.850098 550.467468,591.617371 559.945496,591.916504 
	C560.935852,591.947754 561.961304,590.867554 562.970398,590.302979 
	C562.372192,589.287537 562.013123,587.800354 561.127625,587.351624 
	C559.072693,586.310181 556.706726,585.904846 554.568054,585.001953 
	C547.937134,582.202820 545.200989,577.427002 545.747742,569.891663 
	C546.127686,564.656189 550.189636,560.033142 555.586304,558.694336 
	C561.848877,557.140625 568.186340,559.572815 571.714355,564.884033 
	C577.784851,574.022827 576.545654,586.729248 568.181091,595.757446 
M740.120178,640.650818 
	C746.891418,638.644775 754.022888,637.410156 760.350830,634.454834 
	C770.265442,629.824402 776.026855,621.544861 775.837463,610.267639 
	C775.657349,599.537109 770.059509,592.189453 760.136963,588.118835 
	C759.641663,587.915588 759.274658,587.399963 758.566162,586.785339 
	C759.533752,586.277283 760.071960,585.965088 760.634949,585.706909 
	C761.239197,585.429688 761.900757,585.264832 762.478943,584.945374 
	C769.597473,581.012512 774.647766,575.604065 774.675110,566.933838 
	C774.702637,558.202148 770.265747,551.987976 762.714111,548.259399 
	C752.804993,543.366699 742.684265,544.049194 733.027466,549.069031 
	C726.149536,552.644470 722.068115,561.055542 723.337952,567.650635 
	C726.557312,568.405762 727.373596,566.834534 728.155396,563.848267 
	C730.255920,555.824402 739.303528,550.541565 746.739807,552.470154 
	C754.426208,554.463562 758.958069,562.641602 757.538635,571.956787 
	C756.309875,580.020386 749.790466,585.236023 741.595276,584.152100 
	C738.751099,583.775940 736.143005,581.856445 733.306458,581.085449 
	C731.753113,580.663269 729.948181,581.166809 728.256653,581.252930 
	C728.950684,582.688293 729.376526,584.370728 730.410583,585.492676 
	C731.548645,586.727539 733.245911,587.447021 734.186584,588.057983 
	C731.263855,590.764954 728.288757,593.077148 725.995483,595.936279 
	C725.372192,596.713257 726.805664,599.140015 727.295227,600.809570 
	C728.684998,599.874329 730.954712,599.187500 731.301819,597.957886 
	C732.403198,594.056396 735.163025,592.925842 738.457458,593.223694 
	C741.549072,593.503113 744.682922,594.388916 747.580444,595.550903 
	C758.552612,599.950867 764.482788,616.687317 758.869324,626.959961 
	C756.062744,632.096008 751.958679,633.120972 747.427307,629.495422 
	C745.255188,627.757507 743.650696,625.323669 741.551636,623.474365 
	C740.631653,622.663818 738.842957,621.838013 737.921326,622.205261 
	C734.111023,623.723511 730.439758,625.615601 726.795105,627.518982 
	C720.720276,630.691528 718.629578,636.754028 721.982666,642.069458 
	C722.855286,643.452820 725.271851,645.297241 726.212280,644.935486 
	C729.118958,643.817749 727.411560,641.880554 726.628662,639.755798 
	C725.972168,637.973999 726.315735,634.631409 727.538696,633.680542 
	C728.792847,632.705383 732.082703,633.115784 733.706238,634.144104 
	C736.002014,635.598206 737.586060,638.175903 740.120178,640.650818 
M502.474396,625.617310 
	C504.688782,632.111267 501.393372,639.223877 494.654968,640.841187 
	C486.161102,642.879883 481.889526,640.173157 479.843689,631.450317 
	C476.662720,631.450317 473.477325,631.450317 469.897430,631.450317 
	C471.092621,636.954224 473.693298,640.817566 478.360291,643.007141 
	C484.921326,646.085205 491.824280,646.591980 498.777435,644.676636 
	C509.488892,641.726135 517.462891,626.064941 513.269470,616.578430 
	C508.503845,605.797302 507.446259,594.888916 512.027344,583.717346 
	C512.664856,582.162781 512.568298,580.307129 512.684265,579.488586 
	C506.892212,576.717346 501.950226,574.047302 496.755341,572.027771 
	C494.852966,571.288147 491.660889,571.223328 490.247467,572.347412 
	C485.329407,576.258667 480.643616,580.561279 476.401001,585.201050 
	C468.631470,593.698059 468.071838,604.866699 474.237823,614.616699 
	C476.298950,617.875916 477.975006,621.378662 480.479034,625.963928 
	C485.720398,621.856384 491.366241,617.431946 497.288239,612.791077 
	C499.077026,617.274292 500.598236,621.086975 502.474396,625.617310 
M703.675415,636.290100 
	C707.263855,630.515747 711.610901,625.070435 714.286865,618.900391 
	C720.323914,604.980652 720.809753,591.164124 710.655396,578.473511 
	C709.769470,577.366333 708.910522,575.838196 708.901123,574.499573 
	C708.864441,569.297241 706.708252,570.777832 704.111023,572.711426 
	C700.162781,575.650757 696.150085,578.503418 691.539612,581.846130 
	C689.660767,578.492859 687.906860,575.753723 686.578003,572.821838 
	C685.937317,571.408081 686.097046,569.631592 685.894287,568.019348 
	C684.302307,569.003784 682.628052,569.880188 681.146484,571.009521 
	C680.105286,571.803162 679.366150,572.981018 678.423523,573.918335 
	C674.960815,577.361450 673.354980,580.854126 677.369690,585.108276 
	C678.295471,586.089233 678.787842,587.841370 678.812561,589.250244 
	C678.949951,597.072266 680.882690,605.635803 678.343201,612.523071 
	C675.584412,620.005188 678.866577,622.191650 683.287415,625.715210 
	C685.674194,627.617554 687.273010,627.660034 689.226379,625.608582 
	C692.208557,622.476685 695.253296,619.401062 698.135193,616.179504 
	C698.789856,615.447632 698.885803,614.215881 699.238892,613.214172 
	C698.218384,613.097717 697.042786,612.596252 696.205139,612.933716 
	C693.147461,614.165466 692.175537,612.757812 692.133606,610.039368 
	C692.028320,603.212952 691.676575,596.366150 692.107788,589.570923 
	C692.231873,587.615112 694.465637,585.536255 696.223572,584.127014 
	C696.646912,583.787598 699.623413,585.557983 700.395386,586.935608 
	C702.487061,590.668152 704.833435,594.555176 705.624329,598.661133 
	C707.619141,609.018066 706.501221,619.264771 701.697754,628.806091 
	C699.463135,633.244812 696.587219,637.357117 694.173462,641.712402 
	C693.729248,642.513916 694.108521,643.771851 694.107666,644.819092 
	C695.116821,644.573975 696.461365,644.655212 697.074829,644.024963 
	C699.270935,641.768738 701.219299,639.271362 703.675415,636.290100 
M421.858917,605.450623 
	C421.517120,609.628784 422.973755,614.205078 418.926605,617.581482 
	C418.481171,617.953064 418.701538,620.011963 419.293304,620.580750 
	C421.634155,622.830872 424.178558,624.891602 426.806122,626.804626 
	C427.434174,627.261841 428.983459,627.276855 429.580048,626.813782 
	C432.416382,624.612061 435.404541,622.435425 437.571136,619.652344 
	C438.169556,618.883606 435.949280,616.113403 435.357178,614.160034 
	C434.933533,612.762512 434.982483,611.196411 434.969757,609.704224 
	C434.928619,604.873901 435.159576,600.031677 434.892731,595.215820 
	C434.682465,591.420959 435.387817,588.280823 438.803986,586.208496 
	C440.520813,585.166931 442.291931,584.214905 444.038513,583.222412 
	C444.786774,585.305786 446.120575,587.372620 446.180084,589.475525 
	C446.415619,597.796997 446.237427,606.129822 446.242889,614.458435 
	C446.245453,618.357727 451.017670,625.317444 454.513123,626.384705 
	C455.168762,626.584900 456.318390,626.370422 456.753723,625.898621 
	C460.248169,622.111572 463.678009,618.260193 466.972809,614.299683 
	C467.381500,613.808411 466.882355,612.562012 466.796844,611.585266 
	C465.961395,611.637634 465.410034,611.523071 465.012451,611.719604 
	C459.590668,614.399475 459.248047,614.213135 459.222229,607.967102 
	C459.191925,600.638000 457.676392,592.839905 459.689392,586.107666 
	C461.812836,579.006226 459.861176,576.501099 454.384430,572.910095 
	C450.508789,570.368896 448.622375,570.221191 445.668304,573.332153 
	C442.451935,576.719299 438.917572,579.804504 435.909210,582.654419 
	C433.080017,578.633972 430.856354,575.278748 428.377716,572.123718 
	C427.906616,571.524170 425.897064,571.207764 425.494446,571.625427 
	C422.099854,575.146973 418.913971,578.869629 414.684143,583.637939 
	C423.314331,583.064148 421.723785,588.309387 421.818817,592.472290 
	C421.910065,596.468140 421.850952,600.467468 421.858917,605.450623 
M382.973541,577.509277 
	C381.010437,579.300903 379.059235,581.105774 377.082214,582.881897 
	C367.128571,591.823853 366.279083,605.127258 371.309967,615.246094 
	C373.095673,618.837769 374.810974,622.464478 376.976227,626.938477 
	C382.214569,623.069519 387.674133,619.037109 392.584839,615.410156 
	C396.320618,619.465271 399.669128,623.100037 403.521973,627.282166 
	C407.255371,623.092224 410.789612,619.217834 414.176819,615.218872 
	C414.648285,614.662231 414.782715,613.110718 414.380585,612.703125 
	C413.877045,612.192810 412.418304,611.977234 411.785065,612.345276 
	C406.785339,615.251099 406.980774,611.696289 406.956879,608.534302 
	C406.906586,601.878052 406.790009,595.215759 407.030487,588.567932 
	C407.101532,586.603699 407.963928,584.485474 409.019073,582.781799 
	C410.649353,580.149475 410.762817,578.836487 407.293030,577.850220 
	C402.845642,576.586121 398.369049,575.068970 394.317261,572.893188 
	C391.571808,571.418884 389.741028,571.612732 387.647339,573.466736 
	C386.282013,574.675781 384.890747,575.855530 382.973541,577.509277 
z"/>
<path fill="#F3F3F3" opacity="1.000000" stroke="none" 
	d="
M800.295044,549.791321 
	C782.081177,527.857300 759.628235,512.031433 734.392395,500.116760 
	C722.092224,494.309448 709.302917,489.522003 696.630310,484.539429 
	C694.986572,483.893127 692.174500,484.135254 690.813599,485.166595 
	C671.547607,499.766479 649.760559,508.923981 626.729797,515.557861 
	C582.054321,528.426208 536.445740,530.635681 490.555481,526.055847 
	C455.753265,522.582520 422.079071,514.021545 391.192474,496.754852 
	C385.695953,493.682098 380.418549,490.131378 375.398315,486.328339 
	C372.824890,484.378876 370.666046,483.837341 367.658661,484.817078 
	C341.018158,493.496124 314.921478,503.524994 290.956696,518.205750 
	C278.501160,525.835938 266.764923,534.642212 254.727585,542.951660 
	C251.767792,544.994812 248.348511,546.395874 245.666473,543.587463 
	C243.782394,541.614502 242.790497,538.337585 242.462418,535.519348 
	C242.295761,534.087708 244.200684,532.054016 245.637100,530.851379 
	C263.327515,516.039856 282.602478,503.538025 303.535583,493.954498 
	C320.909149,486.000580 338.883636,479.359375 356.588928,472.129333 
	C357.157288,471.897278 357.693268,471.585907 358.107941,471.379425 
	C354.882050,465.143799 350.974121,459.417816 348.838928,453.093323 
	C343.934082,438.565155 344.895111,424.261383 353.132629,410.904480 
	C363.023071,394.867493 377.713593,384.296967 393.880524,375.505646 
	C399.831085,372.269836 406.029999,369.490662 413.354065,365.895264 
	C409.596985,364.513489 406.982361,363.334778 404.250580,362.579865 
	C364.325409,351.546448 323.663910,346.453674 282.264069,348.372192 
	C250.031631,349.865845 218.327469,354.713654 188.192215,366.849152 
	C178.819153,370.623657 169.983887,375.733887 160.905472,380.238831 
	C160.460709,380.459564 160.044083,380.737488 159.616714,380.992767 
	C156.399841,382.914276 152.854111,384.363251 150.464340,380.356567 
	C148.061279,376.327606 151.079254,374.018921 154.285934,372.042023 
	C175.507614,358.959167 198.679108,350.888275 222.869873,345.571686 
	C255.285889,338.447388 288.113831,336.855530 321.183807,338.652832 
	C357.448334,340.623779 392.786560,347.217651 427.106293,359.208527 
	C428.963226,359.857269 431.325989,359.547607 433.349915,359.153290 
	C453.743652,355.180023 473.967316,349.830200 494.537903,347.417450 
	C513.138916,345.235718 532.127747,345.555603 550.917542,345.988464 
	C575.106201,346.545685 598.970032,350.368958 622.329285,356.786163 
	C630.974182,359.161102 639.369690,362.432068 647.949951,365.062592 
	C650.033264,365.701324 652.591553,366.071960 654.604248,365.470673 
	C697.013550,352.801422 740.269836,345.734894 784.577881,346.905212 
	C818.946289,347.812958 852.516663,353.300140 883.656494,369.008270 
	C898.069824,376.278900 910.702820,385.932831 921.029297,398.450592 
	C923.414307,401.341705 925.337708,404.625000 921.793335,407.629517 
	C918.337341,410.559174 915.354431,408.524628 912.889221,405.494904 
	C896.336060,385.150421 874.071777,374.128387 849.525574,366.978638 
	C817.959900,357.784332 785.620300,356.176788 753.046204,358.014313 
	C725.051819,359.593506 697.542847,364.439087 670.485168,371.797638 
	C669.618469,372.033295 668.850952,372.633301 667.513062,373.340515 
	C673.965698,377.418304 680.124634,380.958740 685.905823,385.034973 
	C699.169312,394.386963 710.692200,405.447662 716.007568,421.276886 
	C721.259033,436.915955 719.013367,451.789856 709.560852,465.450714 
	C708.347839,467.203888 707.173950,468.984131 705.818420,470.994263 
	C715.190674,474.893799 724.288330,478.379181 733.135254,482.414154 
	C764.406128,496.676514 792.606934,515.203247 814.128906,542.555725 
	C819.048584,548.808228 823.223206,555.675415 827.422180,562.456909 
	C830.524292,567.466858 829.512573,572.346802 825.456482,574.684753 
	C821.646484,576.880859 817.560852,575.216492 814.241272,570.258972 
	C809.713501,563.497070 805.108826,556.786621 800.295044,549.791321 
M672.319092,477.046265 
	C635.241699,466.914856 597.375610,461.775452 559.066711,460.334198 
	C506.107208,458.341644 453.683777,462.977509 402.041656,475.277039 
	C396.982697,476.481903 391.993469,477.979462 386.204712,479.549194 
	C387.731964,480.873932 388.297485,481.463165 388.957306,481.914642 
	C390.053253,482.664490 391.198608,483.344696 392.342346,484.021851 
	C424.987457,503.348663 460.909698,511.738678 498.180359,515.164673 
	C529.611755,518.053955 560.976135,517.325378 592.166199,511.793488 
	C620.381836,506.789154 647.524719,498.818848 672.352966,484.096893 
	C674.504272,482.821289 676.463623,481.221924 679.509460,479.067535 
	C676.518616,478.204865 674.818298,477.714447 672.319092,477.046265 
M515.828979,435.885803 
	C512.115356,430.572479 508.830658,424.888428 504.614441,420.009430 
	C485.404968,397.780243 460.696472,383.666626 433.754456,373.045105 
	C432.251556,372.452606 430.079926,372.652069 428.520416,373.257599 
	C420.000000,376.566101 411.352234,379.665741 403.164185,383.684570 
	C388.869080,390.700928 375.791016,399.519592 366.157379,412.588043 
	C353.298004,430.032410 354.320282,449.022522 369.126190,464.814056 
	C370.284698,466.049652 372.934418,466.806793 374.622711,466.464111 
	C381.293793,465.109894 387.850708,463.199921 394.462860,461.547485 
	C434.342316,451.581421 474.844177,446.206909 515.924866,445.099609 
	C517.002686,445.070587 518.074707,444.823517 519.928528,444.572693 
	C518.496826,441.540344 517.322449,439.053192 515.828979,435.885803 
M541.491638,440.268829 
	C540.446960,441.547791 539.402344,442.826782 537.946045,444.609802 
	C539.621643,444.837219 540.251587,444.965240 540.886902,445.002777 
	C561.967468,446.249146 583.102173,446.910339 604.116516,448.865265 
	C633.310608,451.581207 661.959961,457.479218 690.026062,466.108093 
	C691.565186,466.581299 694.297180,466.180542 695.248291,465.103882 
	C707.139160,451.644409 712.194275,435.194916 701.973877,417.960327 
	C691.889893,400.955658 675.959961,390.848999 658.842346,382.176880 
	C652.873169,379.152740 647.474854,378.748016 640.900574,381.190063 
	C604.369324,394.759705 570.450195,412.565369 541.491638,440.268829 
M492.423340,394.089539 
	C507.387695,406.139160 520.025879,420.176697 528.642883,438.272095 
	C558.290955,407.148285 594.251282,388.103516 632.456787,372.347046 
	C571.632141,352.985291 510.524078,352.600433 449.201202,366.690155 
	C463.679688,375.825531 477.786713,384.726532 492.423340,394.089539 
z"/>
<path fill="#EFEFEF" opacity="1.000000" stroke="none" 
	d="
M568.465698,595.516907 
	C576.545654,586.729248 577.784851,574.022827 571.714355,564.884033 
	C568.186340,559.572815 561.848877,557.140625 555.586304,558.694336 
	C550.189636,560.033142 546.127686,564.656189 545.747742,569.891663 
	C545.200989,577.427002 547.937134,582.202820 554.568054,585.001953 
	C556.706726,585.904846 559.072693,586.310181 561.127625,587.351624 
	C562.013123,587.800354 562.372192,589.287537 562.970398,590.302979 
	C561.961304,590.867554 560.935852,591.947754 559.945496,591.916504 
	C550.467468,591.617371 541.335693,582.850098 540.909485,573.361938 
	C540.718201,569.105164 540.668091,564.579773 541.865479,560.567749 
	C547.401550,542.019226 570.258118,542.118530 579.872070,552.989075 
	C582.576904,556.047546 584.435608,556.261230 587.786499,554.205078 
	C592.441772,551.348511 597.489624,549.122192 602.420898,546.732361 
	C603.524109,546.197754 605.514343,545.489929 605.919678,545.934570 
	C606.773193,546.870605 607.189819,548.519043 607.182922,549.872009 
	C607.149963,556.328186 611.730774,562.454956 617.999756,564.343506 
	C618.904236,564.616028 620.003845,565.759766 620.135254,566.632446 
	C620.255493,567.431641 619.398926,568.727356 618.606873,569.253723 
	C615.195435,571.520996 611.649292,573.585693 607.613586,576.053406 
	C609.993713,577.494629 611.721313,578.378784 613.272339,579.505859 
	C624.028625,587.322449 625.896606,602.994263 616.361328,612.338379 
	C605.648743,622.836182 592.025574,627.734436 577.212524,626.477173 
	C570.987854,625.948914 565.084656,621.523010 559.060120,618.813843 
	C557.240723,617.995667 555.558105,616.863953 553.720032,616.098694 
	C549.031311,614.146606 547.613831,615.215027 547.301514,620.323120 
	C547.226929,621.542969 546.131042,622.700378 545.504944,623.886475 
	C544.514771,623.204773 543.197266,622.738159 542.585754,621.807678 
	C537.301636,613.766541 540.373108,606.708191 549.976868,603.399170 
	C556.185547,601.260071 562.122437,598.332031 568.465698,595.516907 
M573.816101,608.704529 
	C579.145935,611.377808 584.281494,614.631775 589.879272,616.503845 
	C593.170593,617.604553 597.769470,617.655396 600.767883,616.155090 
	C606.401550,613.336304 608.602051,603.635681 606.245789,596.976135 
	C603.537476,589.321716 597.578247,584.951111 590.098877,585.798584 
	C588.267761,586.006042 585.891785,587.713440 585.072937,589.375061 
	C582.509888,594.576660 578.805298,598.251953 573.485046,600.425171 
	C570.953857,601.459045 568.467407,602.602417 565.175598,604.038757 
	C568.347412,605.736938 570.763000,607.030212 573.816101,608.704529 
M595.130798,576.637207 
	C604.988953,571.269592 604.992126,571.267334 598.402710,561.940063 
	C597.544678,560.725586 596.871399,559.055969 595.684814,558.483215 
	C594.309937,557.819458 592.187866,557.551880 590.885071,558.164612 
	C589.008545,559.047119 586.133728,560.958252 586.207458,562.290894 
	C586.526611,568.060669 587.763184,573.779724 588.716553,579.838135 
	C590.683838,578.846619 592.570190,577.895935 595.130798,576.637207 
z"/>
<path fill="#F0F0F0" opacity="1.000000" stroke="none" 
	d="
M352.026581,554.833496 
	C352.026581,554.833496 352.137177,555.177673 352.450562,555.542480 
	C354.252014,556.886597 355.620300,558.364075 357.249634,558.755920 
	C363.142639,560.172913 363.175751,560.035156 359.703644,564.919250 
	C358.562469,566.145691 357.421295,567.372131 355.854736,568.986877 
	C354.612793,570.580566 353.796173,571.785889 352.979614,572.991272 
	C352.711823,573.194519 352.444061,573.397766 351.755737,573.940491 
	C347.648773,577.329651 350.743042,578.041016 352.979553,579.048157 
	C353.824188,579.947510 354.668823,580.846802 355.880737,582.163452 
	C357.114960,583.494568 357.981873,584.408447 358.848816,585.322327 
	C358.848816,585.322327 358.830414,585.725525 358.987061,586.216064 
	C360.092773,589.138550 361.041779,591.570557 361.990784,594.002563 
	C361.978821,594.756226 361.966858,595.509888 361.944641,596.948425 
	C362.034424,598.098022 362.134460,598.562683 362.234497,599.027405 
	C362.102570,600.093323 361.970642,601.159302 361.743958,602.906006 
	C361.531799,604.736633 361.414368,605.886414 361.296936,607.036255 
	C360.792969,608.280640 360.289001,609.524963 359.468262,611.277954 
	C358.053528,613.503296 356.955597,615.220032 355.857666,616.936829 
	C355.502441,616.926025 355.224365,617.067200 354.659302,617.673462 
	C353.217926,618.999756 352.140717,620.013062 351.063507,621.026306 
	C350.409363,621.368896 349.755219,621.711426 348.575012,622.342590 
	C345.376709,623.793335 342.704498,624.955444 340.032288,626.117554 
	C339.580841,626.129822 339.129395,626.142212 338.050537,626.201660 
	C336.619202,626.512634 335.815308,626.776672 335.011383,627.040649 
	C331.308441,627.016968 327.605499,626.993286 323.246155,626.817383 
	C322.038910,626.664795 321.488068,626.664490 320.937225,626.664124 
	C320.524567,626.523804 320.111908,626.383545 319.022339,626.117249 
	C316.575134,625.603516 314.804840,625.215820 313.034515,624.828125 
	C299.084747,618.668884 290.362000,608.125183 288.288239,593.041565 
	C285.966797,576.156189 288.538879,560.551575 304.164093,549.332397 
	C306.515137,548.228882 308.328278,547.391785 310.141418,546.554688 
	C313.452911,546.402771 316.764374,546.250793 320.802673,546.330078 
	C324.323364,547.628418 326.376068,546.741638 327.795258,544.184570 
	C327.998993,544.168091 328.202728,544.151611 328.956421,544.296387 
	C330.006714,544.634155 330.507050,544.810547 331.007385,544.986938 
	C331.007385,544.986938 331.000000,545.000000 331.029846,545.362183 
	C331.548645,547.561035 332.070465,549.389893 332.513397,551.237671 
	C332.753021,552.237244 333.309448,553.554199 332.897430,554.206604 
	C332.481628,554.864990 331.044312,555.107056 330.055389,555.105103 
	C329.203888,555.103455 328.353577,554.501526 326.044098,553.588013 
	C326.795959,557.131104 326.877441,559.732483 327.898041,561.889526 
	C330.481293,567.349182 335.659790,572.001953 331.327271,579.742249 
	C335.897949,577.976318 339.272583,577.009094 342.327393,575.425049 
	C349.558167,571.675659 349.806366,568.750183 343.683594,563.449463 
	C335.344727,556.230103 335.345367,556.230652 342.194611,547.751526 
	C342.287415,547.636719 342.269470,547.432373 342.303223,547.269836 
	C342.303223,547.269836 342.086304,547.106262 342.476135,547.143066 
	C343.363220,546.578186 343.860474,545.976501 344.357727,545.374817 
	C344.357727,545.374817 344.026917,545.000549 344.540222,545.130005 
	C345.960632,545.264832 346.867767,545.270203 347.774902,545.275635 
	C347.774902,545.275574 347.860413,545.111023 347.910706,545.577759 
	C347.929504,549.615540 347.731842,553.263550 352.026581,554.833496 
M313.455231,592.142517 
	C310.753326,591.672791 308.051422,591.203064 305.326813,590.729431 
	C305.411255,597.066589 309.785370,607.961243 314.587311,613.963501 
	C321.408936,622.490356 331.964325,624.707214 339.687378,619.235107 
	C347.224487,613.894775 349.364868,600.528809 344.014404,592.213928 
	C339.100769,584.577881 332.103119,583.341003 324.337585,588.185791 
	C321.349915,590.049866 317.687805,590.832886 313.455231,592.142517 
M309.588409,556.165710 
	C304.680023,563.525452 303.310455,571.866455 303.769287,580.397522 
	C303.878510,582.428101 306.598511,584.833435 308.697357,586.122314 
	C311.921021,588.101990 315.938660,587.864502 318.233643,584.860962 
	C319.485138,583.222961 319.300537,579.766357 318.574005,577.513611 
	C317.576355,574.420227 315.517365,571.650024 313.790985,568.815735 
	C311.686890,565.361389 312.081421,562.258728 314.650757,559.223022 
	C316.628296,556.886475 318.456177,554.423340 320.709839,551.560120 
	C315.576080,550.547363 312.522888,552.394897 309.588409,556.165710 
z"/>
<path fill="#EEEEEE" opacity="1.000000" stroke="none" 
	d="
M739.797241,640.462097 
	C737.586060,638.175903 736.002014,635.598206 733.706238,634.144104 
	C732.082703,633.115784 728.792847,632.705383 727.538696,633.680542 
	C726.315735,634.631409 725.972168,637.973999 726.628662,639.755798 
	C727.411560,641.880554 729.118958,643.817749 726.212280,644.935486 
	C725.271851,645.297241 722.855286,643.452820 721.982666,642.069458 
	C718.629578,636.754028 720.720276,630.691528 726.795105,627.518982 
	C730.439758,625.615601 734.111023,623.723511 737.921326,622.205261 
	C738.842957,621.838013 740.631653,622.663818 741.551636,623.474365 
	C743.650696,625.323669 745.255188,627.757507 747.427307,629.495422 
	C751.958679,633.120972 756.062744,632.096008 758.869324,626.959961 
	C764.482788,616.687317 758.552612,599.950867 747.580444,595.550903 
	C744.682922,594.388916 741.549072,593.503113 738.457458,593.223694 
	C735.163025,592.925842 732.403198,594.056396 731.301819,597.957886 
	C730.954712,599.187500 728.684998,599.874329 727.295227,600.809570 
	C726.805664,599.140015 725.372192,596.713257 725.995483,595.936279 
	C728.288757,593.077148 731.263855,590.764954 734.186584,588.057983 
	C733.245911,587.447021 731.548645,586.727539 730.410583,585.492676 
	C729.376526,584.370728 728.950684,582.688293 728.256653,581.252930 
	C729.948181,581.166809 731.753113,580.663269 733.306458,581.085449 
	C736.143005,581.856445 738.751099,583.775940 741.595276,584.152100 
	C749.790466,585.236023 756.309875,580.020386 757.538635,571.956787 
	C758.958069,562.641602 754.426208,554.463562 746.739807,552.470154 
	C739.303528,550.541565 730.255920,555.824402 728.155396,563.848267 
	C727.373596,566.834534 726.557312,568.405762 723.337952,567.650635 
	C722.068115,561.055542 726.149536,552.644470 733.027466,549.069031 
	C742.684265,544.049194 752.804993,543.366699 762.714111,548.259399 
	C770.265747,551.987976 774.702637,558.202148 774.675110,566.933838 
	C774.647766,575.604065 769.597473,581.012512 762.478943,584.945374 
	C761.900757,585.264832 761.239197,585.429688 760.634949,585.706909 
	C760.071960,585.965088 759.533752,586.277283 758.566162,586.785339 
	C759.274658,587.399963 759.641663,587.915588 760.136963,588.118835 
	C770.059509,592.189453 775.657349,599.537109 775.837463,610.267639 
	C776.026855,621.544861 770.265442,629.824402 760.350830,634.454834 
	C754.022888,637.410156 746.891418,638.644775 739.797241,640.462097 
z"/>
<path fill="#EFEFEF" opacity="1.000000" stroke="none" 
	d="
M502.296936,625.258484 
	C500.598236,621.086975 499.077026,617.274292 497.288239,612.791077 
	C491.366241,617.431946 485.720398,621.856384 480.479034,625.963928 
	C477.975006,621.378662 476.298950,617.875916 474.237823,614.616699 
	C468.071838,604.866699 468.631470,593.698059 476.401001,585.201050 
	C480.643616,580.561279 485.329407,576.258667 490.247467,572.347412 
	C491.660889,571.223328 494.852966,571.288147 496.755341,572.027771 
	C501.950226,574.047302 506.892212,576.717346 512.684265,579.488586 
	C512.568298,580.307129 512.664856,582.162781 512.027344,583.717346 
	C507.446259,594.888916 508.503845,605.797302 513.269470,616.578430 
	C517.462891,626.064941 509.488892,641.726135 498.777435,644.676636 
	C491.824280,646.591980 484.921326,646.085205 478.360291,643.007141 
	C473.693298,640.817566 471.092621,636.954224 469.897430,631.450317 
	C473.477325,631.450317 476.662720,631.450317 479.843689,631.450317 
	C481.889526,640.173157 486.161102,642.879883 494.654968,640.841187 
	C501.393372,639.223877 504.688782,632.111267 502.296936,625.258484 
M495.600281,608.757507 
	C495.929230,608.195068 496.488007,607.657410 496.551697,607.066406 
	C497.206543,600.990234 497.876068,594.911743 498.279541,588.816528 
	C498.342682,587.862854 497.313354,586.496887 496.408203,585.887817 
	C494.361145,584.510437 491.982727,583.629883 489.913483,582.279907 
	C487.747772,580.866943 486.507690,581.308350 485.069916,583.406555 
	C480.941254,589.431641 480.673981,600.451111 484.735077,607.126892 
	C487.986084,612.471008 489.869568,612.848694 495.600281,608.757507 
z"/>
<path fill="#EFEFEF" opacity="1.000000" stroke="none" 
	d="
M703.468384,636.577637 
	C701.219299,639.271362 699.270935,641.768738 697.074829,644.024963 
	C696.461365,644.655212 695.116821,644.573975 694.107666,644.819092 
	C694.108521,643.771851 693.729248,642.513916 694.173462,641.712402 
	C696.587219,637.357117 699.463135,633.244812 701.697754,628.806091 
	C706.501221,619.264771 707.619141,609.018066 705.624329,598.661133 
	C704.833435,594.555176 702.487061,590.668152 700.395386,586.935608 
	C699.623413,585.557983 696.646912,583.787598 696.223572,584.127014 
	C694.465637,585.536255 692.231873,587.615112 692.107788,589.570923 
	C691.676575,596.366150 692.028320,603.212952 692.133606,610.039368 
	C692.175537,612.757812 693.147461,614.165466 696.205139,612.933716 
	C697.042786,612.596252 698.218384,613.097717 699.238892,613.214172 
	C698.885803,614.215881 698.789856,615.447632 698.135193,616.179504 
	C695.253296,619.401062 692.208557,622.476685 689.226379,625.608582 
	C687.273010,627.660034 685.674194,627.617554 683.287415,625.715210 
	C678.866577,622.191650 675.584412,620.005188 678.343201,612.523071 
	C680.882690,605.635803 678.949951,597.072266 678.812561,589.250244 
	C678.787842,587.841370 678.295471,586.089233 677.369690,585.108276 
	C673.354980,580.854126 674.960815,577.361450 678.423523,573.918335 
	C679.366150,572.981018 680.105286,571.803162 681.146484,571.009521 
	C682.628052,569.880188 684.302307,569.003784 685.894287,568.019348 
	C686.097046,569.631592 685.937317,571.408081 686.578003,572.821838 
	C687.906860,575.753723 689.660767,578.492859 691.539612,581.846130 
	C696.150085,578.503418 700.162781,575.650757 704.111023,572.711426 
	C706.708252,570.777832 708.864441,569.297241 708.901123,574.499573 
	C708.910522,575.838196 709.769470,577.366333 710.655396,578.473511 
	C720.809753,591.164124 720.323914,604.980652 714.286865,618.900391 
	C711.610901,625.070435 707.263855,630.515747 703.468384,636.577637 
z"/>
<path fill="#F0F0F0" opacity="1.000000" stroke="none" 
	d="
M421.858398,604.957947 
	C421.850952,600.467468 421.910065,596.468140 421.818817,592.472290 
	C421.723785,588.309387 423.314331,583.064148 414.684143,583.637939 
	C418.913971,578.869629 422.099854,575.146973 425.494446,571.625427 
	C425.897064,571.207764 427.906616,571.524170 428.377716,572.123718 
	C430.856354,575.278748 433.080017,578.633972 435.909210,582.654419 
	C438.917572,579.804504 442.451935,576.719299 445.668304,573.332153 
	C448.622375,570.221191 450.508789,570.368896 454.384430,572.910095 
	C459.861176,576.501099 461.812836,579.006226 459.689392,586.107666 
	C457.676392,592.839905 459.191925,600.638000 459.222229,607.967102 
	C459.248047,614.213135 459.590668,614.399475 465.012451,611.719604 
	C465.410034,611.523071 465.961395,611.637634 466.796844,611.585266 
	C466.882355,612.562012 467.381500,613.808411 466.972809,614.299683 
	C463.678009,618.260193 460.248169,622.111572 456.753723,625.898621 
	C456.318390,626.370422 455.168762,626.584900 454.513123,626.384705 
	C451.017670,625.317444 446.245453,618.357727 446.242889,614.458435 
	C446.237427,606.129822 446.415619,597.796997 446.180084,589.475525 
	C446.120575,587.372620 444.786774,585.305786 444.038513,583.222412 
	C442.291931,584.214905 440.520813,585.166931 438.803986,586.208496 
	C435.387817,588.280823 434.682465,591.420959 434.892731,595.215820 
	C435.159576,600.031677 434.928619,604.873901 434.969757,609.704224 
	C434.982483,611.196411 434.933533,612.762512 435.357178,614.160034 
	C435.949280,616.113403 438.169556,618.883606 437.571136,619.652344 
	C435.404541,622.435425 432.416382,624.612061 429.580048,626.813782 
	C428.983459,627.276855 427.434174,627.261841 426.806122,626.804626 
	C424.178558,624.891602 421.634155,622.830872 419.293304,620.580750 
	C418.701538,620.011963 418.481171,617.953064 418.926605,617.581482 
	C422.973755,614.205078 421.517120,609.628784 421.858398,604.957947 
z"/>
<path fill="#F0F0F0" opacity="1.000000" stroke="none" 
	d="
M383.242340,577.278870 
	C384.890747,575.855530 386.282013,574.675781 387.647339,573.466736 
	C389.741028,571.612732 391.571808,571.418884 394.317261,572.893188 
	C398.369049,575.068970 402.845642,576.586121 407.293030,577.850220 
	C410.762817,578.836487 410.649353,580.149475 409.019073,582.781799 
	C407.963928,584.485474 407.101532,586.603699 407.030487,588.567932 
	C406.790009,595.215759 406.906586,601.878052 406.956879,608.534302 
	C406.980774,611.696289 406.785339,615.251099 411.785065,612.345276 
	C412.418304,611.977234 413.877045,612.192810 414.380585,612.703125 
	C414.782715,613.110718 414.648285,614.662231 414.176819,615.218872 
	C410.789612,619.217834 407.255371,623.092224 403.521973,627.282166 
	C399.669128,623.100037 396.320618,619.465271 392.584839,615.410156 
	C387.674133,619.037109 382.214569,623.069519 376.976227,626.938477 
	C374.810974,622.464478 373.095673,618.837769 371.309967,615.246094 
	C366.279083,605.127258 367.128571,591.823853 377.082214,582.881897 
	C379.059235,581.105774 381.010437,579.300903 383.242340,577.278870 
M383.411591,609.856873 
	C385.727600,614.469116 386.717346,614.668884 390.711365,611.824219 
	C393.218811,610.038269 394.484192,607.961365 394.238098,604.738037 
	C393.948120,600.940247 394.127899,597.105652 394.129211,593.286987 
	C394.132141,584.631836 393.663544,584.030762 384.449951,581.567383 
	C379.069366,590.494385 380.303406,599.755188 383.411591,609.856873 
z"/>
<path fill="#F0F0F0" opacity="1.000000" stroke="none" 
	d="
M653.914917,572.406067 
	C655.069641,571.983887 656.224426,571.561768 658.040466,571.064331 
	C659.713501,573.086670 660.725281,575.184265 661.737000,577.281921 
	C661.737000,577.281921 661.912903,577.078064 661.800781,577.484131 
	C662.063721,578.370239 662.438782,578.850342 662.813782,579.330383 
	C663.382080,580.419861 663.950378,581.509338 664.742981,583.135071 
	C665.504272,584.358093 666.041199,585.044922 666.578186,585.731689 
	C667.358215,587.313354 668.138245,588.895081 669.124268,590.998779 
	C669.629700,591.994629 669.929199,592.468445 670.228638,592.942261 
	C670.225708,593.396057 670.222778,593.849854 670.249878,595.033386 
	C670.370605,596.861633 670.461243,597.960144 670.551941,599.058655 
	C670.403137,599.800110 670.254333,600.541504 669.917114,601.849976 
	C669.598572,602.958435 669.468567,603.499939 669.338501,604.041443 
	C666.887085,607.447876 664.435608,610.854248 661.601990,614.660339 
	C660.793518,615.693787 660.367249,616.327576 659.940918,616.961365 
	C659.940979,616.961365 659.995972,616.999512 659.675659,617.021973 
	C658.914185,617.700623 658.473145,618.356873 658.032043,619.013062 
	C657.457458,619.580322 656.882874,620.147583 655.869751,621.062622 
	C654.815857,622.227844 654.200562,623.045227 653.585266,623.862610 
	C653.282166,623.885681 653.076965,624.039429 652.604492,624.631226 
	C650.810303,625.769348 649.381348,626.600037 647.952332,627.430725 
	C645.200195,625.961792 642.448059,624.492859 639.237793,622.849304 
	C638.046204,622.512451 637.312866,622.350159 636.579468,622.187866 
	C636.031250,621.912231 635.483093,621.636597 634.594849,621.424805 
	C634.254883,621.488647 634.276306,621.467712 634.276306,621.467712 
	C634.276306,621.467712 633.906982,621.158508 633.501221,620.950562 
	C632.381165,620.636414 631.666931,620.530273 630.952637,620.424133 
	C630.312683,619.500488 629.672729,618.576904 629.173523,617.131714 
	C629.464783,616.063110 629.615295,615.515930 629.765747,614.968811 
	C630.207031,613.877197 630.648315,612.785583 631.196777,610.979187 
	C631.157043,602.855591 631.010193,595.446838 630.863342,588.038025 
	C630.872192,586.309448 630.880981,584.580872 631.285034,582.328064 
	C639.091797,578.671265 646.503357,575.538696 653.914917,572.406067 
M644.162903,587.703186 
	C644.153015,594.697327 643.920715,601.703064 644.283020,608.677917 
	C644.378723,610.520447 645.878601,613.025574 647.469849,613.926941 
	C654.170593,617.722473 656.528748,616.644592 657.732605,608.860657 
	C658.341309,604.924622 658.334106,600.479309 657.093140,596.770203 
	C655.320557,591.472412 652.227234,586.602417 649.521301,581.646179 
	C649.113464,580.899170 647.673401,580.203064 646.845642,580.334167 
	C645.910767,580.482422 644.666504,581.443420 644.385986,582.317139 
	C643.947083,583.684387 644.204773,585.275330 644.162903,587.703186 
z"/>
<path fill="#262626" opacity="1.000000" stroke="none" 
	d="
M341.872742,547.202759 
	C342.269470,547.432373 342.287415,547.636719 342.194611,547.751526 
	C335.345367,556.230652 335.344727,556.230103 343.683594,563.449463 
	C349.806366,568.750183 349.558167,571.675659 342.327393,575.425049 
	C339.272583,577.009094 335.897949,577.976318 331.327271,579.742249 
	C335.659790,572.001953 330.481293,567.349182 327.898041,561.889526 
	C326.877441,559.732483 326.795959,557.131104 326.044098,553.588013 
	C328.353577,554.501526 329.203888,555.103455 330.055389,555.105103 
	C331.044312,555.107056 332.481628,554.864990 332.897430,554.206604 
	C333.309448,553.554199 332.753021,552.237244 332.513397,551.237671 
	C332.070465,549.389893 331.548645,547.561035 331.036743,545.358154 
	C334.489960,545.706604 337.966125,546.421143 341.872742,547.202759 
z"/>
<path fill="#262626" opacity="1.000000" stroke="none" 
	d="
M653.930908,572.048523 
	C646.503357,575.538696 639.091797,578.671265 631.317871,581.895142 
	C631.825867,581.021912 632.513855,579.630493 633.598267,579.167603 
	C638.014648,577.282410 642.613647,575.822083 647.014099,573.903931 
	C648.675598,573.179749 650.080811,571.742859 651.426758,570.447815 
	C653.610229,568.346924 653.760803,569.960815 653.930908,572.048523 
z"/>
<path fill="#262626" opacity="1.000000" stroke="none" 
	d="
M630.595581,588.351440 
	C631.010193,595.446838 631.157043,602.855591 631.111084,610.621948 
	C630.721436,603.541199 630.524658,596.103027 630.595581,588.351440 
z"/>
<path fill="#262626" opacity="1.000000" stroke="none" 
	d="
M360.072388,564.926025 
	C363.175751,560.035156 363.142639,560.172913 357.249634,558.755920 
	C355.620300,558.364075 354.252014,556.886597 352.629944,555.564941 
	C355.185028,555.762024 358.115356,555.799377 360.510773,556.950073 
	C364.869690,559.044189 364.697968,561.917786 360.072388,564.926025 
z"/>
<path fill="#262626" opacity="1.000000" stroke="none" 
	d="
M352.042542,554.495850 
	C347.731842,553.263550 347.929504,549.615540 347.842957,545.641052 
	C352.122375,546.776672 351.171051,550.914001 352.042542,554.495850 
z"/>
<path fill="#262626" opacity="1.000000" stroke="none" 
	d="
M340.232666,626.350098 
	C342.704498,624.955444 345.376709,623.793335 348.419800,622.577209 
	C347.619812,627.201416 343.789642,626.404602 340.232666,626.350098 
z"/>
<path fill="#262626" opacity="1.000000" stroke="none" 
	d="
M327.450714,544.089417 
	C326.376068,546.741638 324.323364,547.628418 321.258118,546.314148 
	C323.026550,545.376099 325.066376,544.685181 327.450714,544.089417 
z"/>
<path fill="#262626" opacity="1.000000" stroke="none" 
	d="
M661.810303,576.851807 
	C660.725281,575.184265 659.713501,573.086670 658.332397,570.832397 
	C659.075928,570.710144 661.069092,570.502563 661.156189,570.819031 
	C661.650574,572.617310 661.689636,574.540771 661.810303,576.851807 
z"/>
<path fill="#262626" opacity="1.000000" stroke="none" 
	d="
M362.246643,593.786743 
	C361.041779,591.570557 360.092773,589.138550 359.143860,586.343140 
	C364.262146,586.741089 361.736786,590.883972 362.246643,593.786743 
z"/>
<path fill="#262626" opacity="1.000000" stroke="none" 
	d="
M310.014404,546.276245 
	C308.328278,547.391785 306.515137,548.228882 304.355408,549.058044 
	C304.781952,545.747742 307.271210,545.750549 310.014404,546.276245 
z"/>
<path fill="#262626" opacity="1.000000" stroke="none" 
	d="
M313.049011,625.106323 
	C314.804840,625.215820 316.575134,625.603516 318.691895,626.171021 
	C317.046692,626.028748 315.055115,625.706604 313.049011,625.106323 
z"/>
<path fill="#262626" opacity="1.000000" stroke="none" 
	d="
M648.036621,627.720093 
	C649.381348,626.600037 650.810303,625.769348 652.583862,624.831543 
	C652.561707,627.627869 651.189575,629.060120 648.036621,627.720093 
z"/>
<path fill="#262626" opacity="1.000000" stroke="none" 
	d="
M356.229401,616.929932 
	C356.955597,615.220032 358.053528,613.503296 359.448792,611.614502 
	C358.697815,613.269409 357.649475,615.096252 356.229401,616.929932 
z"/>
<path fill="#262626" opacity="1.000000" stroke="none" 
	d="
M352.963379,578.684448 
	C350.743042,578.041016 347.648773,577.329651 351.687103,574.187378 
	C352.341736,575.503479 352.644440,576.912109 352.963379,578.684448 
z"/>
<path fill="#262626" opacity="1.000000" stroke="none" 
	d="
M670.839783,599.000122 
	C670.461243,597.960144 670.370605,596.861633 670.363037,595.355652 
	C672.946655,595.891357 673.735718,597.126587 670.839783,599.000122 
z"/>
<path fill="#262626" opacity="1.000000" stroke="none" 
	d="
M347.799652,544.945190 
	C346.867767,545.270203 345.960632,545.264832 344.710327,545.313232 
	C344.753296,544.480408 345.139435,543.593750 345.525574,542.707092 
	C346.291870,543.342957 347.058136,543.978821 347.799652,544.945190 
z"/>
<path fill="#262626" opacity="1.000000" stroke="none" 
	d="
M351.430237,621.043335 
	C352.140717,620.013062 353.217926,618.999756 354.610840,617.911011 
	C353.883331,618.910461 352.840149,619.985474 351.430237,621.043335 
z"/>
<path fill="#262626" opacity="1.000000" stroke="none" 
	d="
M361.612366,606.959473 
	C361.414368,605.886414 361.531799,604.736633 361.846191,603.298828 
	C362.004669,604.301514 361.966217,605.592163 361.612366,606.959473 
z"/>
<path fill="#262626" opacity="1.000000" stroke="none" 
	d="
M353.344604,572.989075 
	C353.796173,571.785889 354.612793,570.580566 355.730530,569.285522 
	C355.257660,570.459412 354.483612,571.723145 353.344604,572.989075 
z"/>
<path fill="#262626" opacity="1.000000" stroke="none" 
	d="
M636.464050,622.501099 
	C637.312866,622.350159 638.046204,622.512451 638.877014,622.890259 
	C638.338013,623.553833 637.701599,624.001831 637.065247,624.449890 
	C636.826416,623.904663 636.587524,623.359497 636.464050,622.501099 
z"/>
<path fill="#262626" opacity="1.000000" stroke="none" 
	d="
M335.193054,627.271362 
	C335.815308,626.776672 336.619202,626.512634 337.736084,626.337158 
	C337.157623,626.784424 336.266174,627.143250 335.193054,627.271362 
z"/>
<path fill="#262626" opacity="1.000000" stroke="none" 
	d="
M358.897034,584.945557 
	C357.981873,584.408447 357.114960,583.494568 356.174286,582.269775 
	C357.048767,582.828918 357.996979,583.698914 358.897034,584.945557 
z"/>
<path fill="#262626" opacity="1.000000" stroke="none" 
	d="
M660.268188,616.988892 
	C660.367249,616.327576 660.793518,615.693787 661.508911,614.992554 
	C661.397156,615.622253 660.996277,616.319336 660.268188,616.988892 
z"/>
<path fill="#262626" opacity="1.000000" stroke="none" 
	d="
M653.939819,623.882385 
	C654.200562,623.045227 654.815857,622.227844 655.738281,621.349365 
	C655.461670,622.159485 654.877991,623.030823 653.939819,623.882385 
z"/>
<path fill="#262626" opacity="1.000000" stroke="none" 
	d="
M631.060730,620.728577 
	C631.666931,620.530273 632.381165,620.636414 633.262451,620.982178 
	C632.675903,621.158813 631.922363,621.095947 631.060730,620.728577 
z"/>
<path fill="#262626" opacity="1.000000" stroke="none" 
	d="
M321.004700,626.902283 
	C321.488068,626.664490 322.038910,626.664795 322.785889,626.868164 
	C322.345398,627.094299 321.708771,627.117371 321.004700,626.902283 
z"/>
<path fill="#262626" opacity="1.000000" stroke="none" 
	d="
M669.598999,604.011597 
	C669.468567,603.499939 669.598572,602.958435 669.947937,602.228394 
	C670.064636,602.687134 669.962036,603.334412 669.598999,604.011597 
z"/>
<path fill="#262626" opacity="1.000000" stroke="none" 
	d="
M666.676636,585.363281 
	C666.041199,585.044922 665.504272,584.358093 664.984558,583.335510 
	C665.592896,583.664856 666.184021,584.329895 666.676636,585.363281 
z"/>
<path fill="#262626" opacity="1.000000" stroke="none" 
	d="
M658.359619,618.992798 
	C658.473145,618.356873 658.914185,617.700623 659.658936,616.993042 
	C659.537415,617.618713 659.112244,618.295654 658.359619,618.992798 
z"/>
<path fill="#262626" opacity="1.000000" stroke="none" 
	d="
M629.494873,614.988403 
	C629.615295,615.515930 629.464783,616.063110 629.080200,616.785522 
	C628.972046,616.309875 629.097961,615.658936 629.494873,614.988403 
z"/>
<path fill="#262626" opacity="1.000000" stroke="none" 
	d="
M344.005707,545.327515 
	C343.860474,545.976501 343.363220,546.578186 342.568665,547.242493 
	C342.732117,546.630188 343.192902,545.955200 344.005707,545.327515 
z"/>
<path fill="#262626" opacity="1.000000" stroke="none" 
	d="
M670.419006,592.778992 
	C669.929199,592.468445 669.629700,591.994629 669.368286,591.235352 
	C669.807373,591.505127 670.208374,592.060425 670.419006,592.778992 
z"/>
<path fill="#262626" opacity="1.000000" stroke="none" 
	d="
M331.009796,544.731689 
	C330.507050,544.810547 330.006714,544.634155 329.232117,544.162354 
	C329.642700,544.070068 330.327454,544.273254 331.009796,544.731689 
z"/>
<path fill="#262626" opacity="1.000000" stroke="none" 
	d="
M362.500000,598.991821 
	C362.134460,598.562683 362.034424,598.098022 362.088623,597.302673 
	C362.417053,597.633423 362.591278,598.294861 362.500000,598.991821 
z"/>
<path fill="#262626" opacity="1.000000" stroke="none" 
	d="
M662.945190,579.066711 
	C662.438782,578.850342 662.063721,578.370239 661.697083,577.569946 
	C662.162537,577.767456 662.619568,578.285278 662.945190,579.066711 
z"/>
<path fill="#262626" opacity="1.000000" stroke="none" 
	d="
M634.085571,621.554321 
	C634.276306,621.467712 634.254883,621.488647 634.286621,621.469177 
	C634.177185,621.513489 634.036011,621.577271 634.085571,621.554321 
z"/>
<path fill="#131313" opacity="1.000000" stroke="none" 
	d="
M672.718506,477.135132 
	C674.818298,477.714447 676.518616,478.204865 679.509460,479.067535 
	C676.463623,481.221924 674.504272,482.821289 672.352966,484.096893 
	C647.524719,498.818848 620.381836,506.789154 592.166199,511.793488 
	C560.976135,517.325378 529.611755,518.053955 498.180359,515.164673 
	C460.909698,511.738678 424.987457,503.348663 392.342346,484.021851 
	C391.198608,483.344696 390.053253,482.664490 388.957306,481.914642 
	C388.297485,481.463165 387.731964,480.873932 386.204712,479.549194 
	C391.993469,477.979462 396.982697,476.481903 402.041656,475.277039 
	C453.683777,462.977509 506.107208,458.341644 559.066711,460.334198 
	C597.375610,461.775452 635.241699,466.914856 672.718506,477.135132 
z"/>
<path fill="#121212" opacity="1.000000" stroke="none" 
	d="
M515.988525,436.225922 
	C517.322449,439.053192 518.496826,441.540344 519.928528,444.572693 
	C518.074707,444.823517 517.002686,445.070587 515.924866,445.099609 
	C474.844177,446.206909 434.342316,451.581421 394.462860,461.547485 
	C387.850708,463.199921 381.293793,465.109894 374.622711,466.464111 
	C372.934418,466.806793 370.284698,466.049652 369.126190,464.814056 
	C354.320282,449.022522 353.298004,430.032410 366.157379,412.588043 
	C375.791016,399.519592 388.869080,390.700928 403.164185,383.684570 
	C411.352234,379.665741 420.000000,376.566101 428.520416,373.257599 
	C430.079926,372.652069 432.251556,372.452606 433.754456,373.045105 
	C460.696472,383.666626 485.404968,397.780243 504.614441,420.009430 
	C508.830658,424.888428 512.115356,430.572479 515.988525,436.225922 
z"/>
<path fill="#121212" opacity="1.000000" stroke="none" 
	d="
M541.743774,439.987488 
	C570.450195,412.565369 604.369324,394.759705 640.900574,381.190063 
	C647.474854,378.748016 652.873169,379.152740 658.842346,382.176880 
	C675.959961,390.848999 691.889893,400.955658 701.973877,417.960327 
	C712.194275,435.194916 707.139160,451.644409 695.248291,465.103882 
	C694.297180,466.180542 691.565186,466.581299 690.026062,466.108093 
	C661.959961,457.479218 633.310608,451.581207 604.116516,448.865265 
	C583.102173,446.910339 561.967468,446.249146 540.886902,445.002777 
	C540.251587,444.965240 539.621643,444.837219 537.946045,444.609802 
	C539.402344,442.826782 540.446960,441.547791 541.743774,439.987488 
z"/>
<path fill="#131313" opacity="1.000000" stroke="none" 
	d="
M492.158539,393.858521 
	C477.786713,384.726532 463.679688,375.825531 449.201202,366.690155 
	C510.524078,352.600433 571.632141,352.985291 632.456787,372.347046 
	C594.251282,388.103516 558.290955,407.148285 528.642883,438.272095 
	C520.025879,420.176697 507.387695,406.139160 492.158539,393.858521 
z"/>
<path fill="#191919" opacity="1.000000" stroke="none" 
	d="
M573.497314,608.514038 
	C570.763000,607.030212 568.347412,605.736938 565.175598,604.038757 
	C568.467407,602.602417 570.953857,601.459045 573.485046,600.425171 
	C578.805298,598.251953 582.509888,594.576660 585.072937,589.375061 
	C585.891785,587.713440 588.267761,586.006042 590.098877,585.798584 
	C597.578247,584.951111 603.537476,589.321716 606.245789,596.976135 
	C608.602051,603.635681 606.401550,613.336304 600.767883,616.155090 
	C597.769470,617.655396 593.170593,617.604553 589.879272,616.503845 
	C584.281494,614.631775 579.145935,611.377808 573.497314,608.514038 
z"/>
<path fill="#202020" opacity="1.000000" stroke="none" 
	d="
M594.793701,576.791199 
	C592.570190,577.895935 590.683838,578.846619 588.716553,579.838135 
	C587.763184,573.779724 586.526611,568.060669 586.207458,562.290894 
	C586.133728,560.958252 589.008545,559.047119 590.885071,558.164612 
	C592.187866,557.551880 594.309937,557.819458 595.684814,558.483215 
	C596.871399,559.055969 597.544678,560.725586 598.402710,561.940063 
	C604.992126,571.267334 604.988953,571.269592 594.793701,576.791199 
z"/>
<path fill="#171717" opacity="1.000000" stroke="none" 
	d="
M313.894104,592.125488 
	C317.687805,590.832886 321.349915,590.049866 324.337585,588.185791 
	C332.103119,583.341003 339.100769,584.577881 344.014404,592.213928 
	C349.364868,600.528809 347.224487,613.894775 339.687378,619.235107 
	C331.964325,624.707214 321.408936,622.490356 314.587311,613.963501 
	C309.785370,607.961243 305.411255,597.066589 305.326813,590.729431 
	C308.051422,591.203064 310.753326,591.672791 313.894104,592.125488 
z"/>
<path fill="#1E1E1E" opacity="1.000000" stroke="none" 
	d="
M309.790558,555.854858 
	C312.522888,552.394897 315.576080,550.547363 320.709839,551.560120 
	C318.456177,554.423340 316.628296,556.886475 314.650757,559.223022 
	C312.081421,562.258728 311.686890,565.361389 313.790985,568.815735 
	C315.517365,571.650024 317.576355,574.420227 318.574005,577.513611 
	C319.300537,579.766357 319.485138,583.222961 318.233643,584.860962 
	C315.938660,587.864502 311.921021,588.101990 308.697357,586.122314 
	C306.598511,584.833435 303.878510,582.428101 303.769287,580.397522 
	C303.310455,571.866455 304.680023,563.525452 309.790558,555.854858 
z"/>
<path fill="#1D1D1D" opacity="1.000000" stroke="none" 
	d="
M495.270050,608.965332 
	C489.869568,612.848694 487.986084,612.471008 484.735077,607.126892 
	C480.673981,600.451111 480.941254,589.431641 485.069916,583.406555 
	C486.507690,581.308350 487.747772,580.866943 489.913483,582.279907 
	C491.982727,583.629883 494.361145,584.510437 496.408203,585.887817 
	C497.313354,586.496887 498.342682,587.862854 498.279541,588.816528 
	C497.876068,594.911743 497.206543,600.990234 496.551697,607.066406 
	C496.488007,607.657410 495.929230,608.195068 495.270050,608.965332 
z"/>
<path fill="#1D1D1D" opacity="1.000000" stroke="none" 
	d="
M383.283356,609.490234 
	C380.303406,599.755188 379.069366,590.494385 384.449951,581.567383 
	C393.663544,584.030762 394.132141,584.631836 394.129211,593.286987 
	C394.127899,597.105652 393.948120,600.940247 394.238098,604.738037 
	C394.484192,607.961365 393.218811,610.038269 390.711365,611.824219 
	C386.717346,614.668884 385.727600,614.469116 383.283356,609.490234 
z"/>
<path fill="#202020" opacity="1.000000" stroke="none" 
	d="
M644.165161,587.237305 
	C644.204773,585.275330 643.947083,583.684387 644.385986,582.317139 
	C644.666504,581.443420 645.910767,580.482422 646.845642,580.334167 
	C647.673401,580.203064 649.113464,580.899170 649.521301,581.646179 
	C652.227234,586.602417 655.320557,591.472412 657.093140,596.770203 
	C658.334106,600.479309 658.341309,604.924622 657.732605,608.860657 
	C656.528748,616.644592 654.170593,617.722473 647.469849,613.926941 
	C645.878601,613.025574 644.378723,610.520447 644.283020,608.677917 
	C643.920715,601.703064 644.153015,594.697327 644.165161,587.237305 
z"/>
</svg>
