<?xml version="1.0" encoding="UTF-8"?>
<svg version="1.1" xmlns="http://www.w3.org/2000/svg" width="828" height="759">
<path d="M0 0 C1.26490265 -0.00101212 1.26490265 -0.00101212 2.55535889 -0.00204468 C43.24243687 0.0490086 85.54292286 4.92186237 123.76953125 19.40234375 C130.4259002 21.29543951 136.70039408 19.82650578 143.28515625 18.38671875 C144.19970078 18.19406937 145.1142453 18.00141998 146.0565033 17.80293274 C149.9319946 16.9865343 153.80405001 16.15442551 157.67602539 15.3215332 C176.3577027 11.32003638 195.04255082 7.94373443 214.1875 7.5 C215.4355542 7.46616211 216.6836084 7.43232422 217.96948242 7.39746094 C257.65511923 6.53585999 298.71863642 9.76252833 336.12158203 24.16308594 C345.99165818 27.92494494 354.5967973 24.65733797 364.50259399 22.04086304 C380.12320411 17.9394086 395.77951809 14.69823787 411.75 12.25 C412.74451172 12.08628906 413.73902344 11.92257812 414.76367188 11.75390625 C431.24470274 9.10380029 447.72149461 8.93976908 464.375 8.875 C465.44275665 8.86705414 466.51051331 8.85910828 467.61062622 8.85092163 C515.81580388 8.57555339 566.87852278 18.41825289 602.6875 52.9375 C606.128584 56.51920522 609.31774332 59.92662032 610.25 64.9375 C609.75 67.25 609.75 67.25 608.0625 69.125 C605.09091387 70.5706365 603.87713987 70.19122405 600.75 69.25 C598.91992188 67.81054688 598.91992188 67.81054688 597.21875 65.96875 C596.58001953 65.29585938 595.94128906 64.62296875 595.28320312 63.9296875 C594.61224609 63.21039063 593.94128906 62.49109375 593.25 61.75 C574.83318299 42.74559083 551.97080957 33.38776099 526.6875 27.0625 C525.76267822 26.82450684 524.83785645 26.58651367 523.88500977 26.34130859 C504.52763717 21.72246892 484.82425755 20.72444182 465 20.875 C463.91226288 20.87932037 462.82452576 20.88364075 461.7038269 20.88809204 C444.89252185 20.96613381 428.37384551 21.54421491 411.75 24.25 C410.62207031 24.43224121 409.49414062 24.61448242 408.33203125 24.80224609 C396.34977197 26.79208577 384.45998065 29.20753038 372.625 31.9375 C371.29094116 32.24083252 371.29094116 32.24083252 369.92993164 32.55029297 C367.85271943 33.04998888 365.79777423 33.64079785 363.75 34.25 C363.42 34.91 363.09 35.57 362.75 36.25 C363.42804688 36.48589844 364.10609375 36.72179687 364.8046875 36.96484375 C368.42504655 38.54454949 371.6127657 40.61127353 374.875 42.8125 C375.53443604 43.25722656 376.19387207 43.70195312 376.87329102 44.16015625 C391.90003712 54.42214656 406.935287 68.09655891 410.53515625 86.9453125 C411.88920103 101.47052019 410.19354445 112.85019717 401.82421875 125.19140625 C401.29248047 126.21041016 401.29248047 126.21041016 400.75 127.25 C401.40677068 130.35085738 401.40677068 130.35085738 403.7175293 131.33398438 C404.57773682 131.66720703 405.43794434 132.00042969 406.32421875 132.34375 C407.29117676 132.72861572 408.25813477 133.11348145 409.25439453 133.51000977 C410.30481934 133.91920654 411.35524414 134.32840332 412.4375 134.75 C429.66560026 141.70288879 446.56071923 149.45150509 461.75 160.25 C462.39130859 160.70487793 463.03261719 161.15975586 463.69335938 161.62841797 C472.95702107 168.26146569 481.54405384 175.35347865 489.75 183.25 C490.42933594 183.86617187 491.10867188 184.48234375 491.80859375 185.1171875 C501.0087641 193.72441548 517.62401766 211.06608774 518.375 224.25 C517.70195164 227.48063214 517.20749553 229.04672814 514.75 231.25 C511.79247051 232.41744585 510.36174187 232.47537858 507.375 231.375 C501.92469676 226.96284976 498.30174434 221.15078713 494.65893555 215.22314453 C474.25436423 182.68415046 438.50443846 163.89829629 403.96011353 149.95529175 C402.09353494 149.20005702 400.23165165 148.433251 398.36987305 147.66625977 C397.21269775 147.20791748 396.05552246 146.7495752 394.86328125 146.27734375 C393.82985596 145.86218506 392.79643066 145.44702637 391.73168945 145.01928711 C388.29827582 144.13345346 386.15879041 144.34551216 382.75 145.25 C380.5026154 146.64492837 378.43193102 148.06051007 376.3125 149.625 C317.92841508 190.28441977 231.55273639 192.69971657 164.02880859 180.86376953 C133.92906365 175.22931244 100.38749036 165.57960065 76.578125 145.41015625 C68.79105621 142.21573715 58.23044253 148.03355509 50.875 150.8125 C49.68825684 151.25795166 48.50151367 151.70340332 47.27880859 152.16235352 C23.87330101 161.05732974 1.24763848 171.7927518 -19.25 186.25 C-21.00341163 187.47336547 -22.75735347 188.69597125 -24.51171875 189.91796875 C-28.78634618 192.89948253 -33.05216085 195.89320876 -37.31152344 198.89648438 C-42.11435786 202.25 -42.11435786 202.25 -45.75 202.25 C-49.25 201.25 -49.25 201.25 -51.1875 198.5 C-52.94843878 193.11359901 -52.94843878 193.11359901 -52.25 190.25 C-47.8850615 185.00633585 -42.46765554 180.92700849 -36.9375 177 C-36.15842285 176.44352783 -35.3793457 175.88705566 -34.57666016 175.3137207 C-21.45874751 166.05796804 -7.78347433 158.05621701 6.75 151.25 C7.46220703 150.91323242 8.17441406 150.57646484 8.90820312 150.22949219 C24.56228905 142.86810008 40.66013608 136.58115186 56.75 130.25 C56.75 125.72964603 55.34676549 122.98017017 53.375 119.0625 C46.88630911 105.58921876 45.7337311 92.62869445 50.75 78.25 C54.55894639 69.03856843 60.81036853 62.1994056 67.75 55.25 C68.45898438 54.52941406 69.16796875 53.80882812 69.8984375 53.06640625 C78.49309995 44.88336556 98.43767949 29.25 110.75 29.25 C108.28218366 26.29027561 106.08140462 25.54101993 102.38671875 24.6015625 C101.28714844 24.32078857 100.18757812 24.04001465 99.0546875 23.75073242 C97.26417969 23.31724487 97.26417969 23.31724487 95.4375 22.875 C93.57931641 22.41927612 93.57931641 22.41927612 91.68359375 21.9543457 C82.58935448 19.78750167 73.47160256 17.98781909 64.25 16.4375 C63.09717529 16.2430127 61.94435059 16.04852539 60.7565918 15.84814453 C41.71497408 12.80630128 22.95498826 11.87519152 3.6875 11.9375 C1.93294495 11.94023422 1.93294495 11.94023422 0.14294434 11.94302368 C-16.82668388 11.98756148 -33.49255061 12.32459013 -50.25 15.25 C-51.29849121 15.42692383 -52.34698242 15.60384766 -53.42724609 15.78613281 C-79.24101016 20.24701011 -102.79459776 28.0245401 -125.95214844 40.28759766 C-126.93860352 40.7985498 -127.92505859 41.30950195 -128.94140625 41.8359375 C-130.25927124 42.53275635 -130.25927124 42.53275635 -131.60375977 43.24365234 C-134.68629127 44.41591869 -136.9772687 44.55035555 -140.25 44.25 C-142.25 42.5625 -142.25 42.5625 -143.25 40.25 C-142.07819563 35.5551734 -139.93534157 33.94246768 -135.875 31.5 C-95.45348645 7.53861533 -46.30605009 0.03374326 0 0 Z M151.75 28.25 C152.9406813 31.8220439 153.70455409 32.12017873 156.84375 34 C157.70121826 34.52045898 158.55868652 35.04091797 159.44213867 35.57714844 C160.83203003 36.40520996 160.83203003 36.40520996 162.25 37.25 C164.17386343 38.42074788 166.09703111 39.59263979 168.01953125 40.765625 C168.98455566 41.35150391 169.94958008 41.93738281 170.94384766 42.54101562 C181.62538145 49.04621282 191.80771665 55.41620189 200.75 64.25 C201.56597656 65.00539063 202.38195312 65.76078125 203.22265625 66.5390625 C212.13034498 74.9924178 219.78516826 84.96629149 224.75 96.25 C228.94161923 95.75122609 230.6547979 93.5229668 233.4375 90.5 C257.8969063 64.97842917 291.92283625 49.31682052 323.75 35.25 C323.75 34.59 323.75 33.93 323.75 33.25 C268.77958005 16.26869193 207.63582737 13.3831761 151.75 28.25 Z M121.125 37.5625 C120.20001709 37.92496826 119.27503418 38.28743652 118.32202148 38.66088867 C96.72270597 47.34294843 72.60239555 59.87837845 62.81640625 82.3984375 C59.15153341 92.39354524 59.13113752 101.19760423 62.75 111.25 C64.18222365 114.12872196 65.85439857 116.66074 67.75 119.25 C68.3275 120.24 68.905 121.23 69.5 122.25 C72.29193379 124.73171893 74.11095343 124.66100351 77.75634766 124.57519531 C83.82092522 123.91641067 89.70971587 122.24895673 95.6104126 120.74591064 C135.16380762 110.7303117 175.07216543 106.38992764 215.75 104.25 C213.23971072 87.13345325 195.65827934 71.26072626 182.36889648 61.30493164 C170.41247837 52.59612323 157.87470584 45.64679078 144.5625 39.25 C143.76013916 38.86360352 142.95777832 38.47720703 142.13110352 38.07910156 C133.73509853 34.13831978 129.76964756 34.13153509 121.125 37.5625 Z M329.625 44.375 C328.73192139 44.72264404 327.83884277 45.07028809 326.91870117 45.4284668 C307.42188536 53.22818356 288.19664445 62.5354412 270.75 74.25 C270.12641602 74.66701172 269.50283203 75.08402344 268.86035156 75.51367188 C261.06883407 80.77920979 253.79156331 86.55071641 246.6875 92.70703125 C245.17029648 94.02046142 243.64874402 95.33052571 242.078125 96.57958984 C238.61297989 99.30971969 238.61297989 99.30971969 236.75 103.25 C238.45964285 104.95964285 240.73607315 104.53537614 243.07885742 104.66723633 C244.22323776 104.73433304 245.3676181 104.80142975 246.54667664 104.87055969 C247.80357803 104.94034531 249.06047943 105.01013092 250.35546875 105.08203125 C252.35029544 105.20121152 254.34512132 105.32040698 256.33990192 105.44035625 C261.24358203 105.73401959 266.14774896 106.01883299 271.05249023 106.29418945 C296.59998059 107.73617799 321.97780113 110.07704755 347 115.6875 C348.38636345 115.98887442 349.77284045 116.28972696 351.15942383 116.59008789 C359.35124199 118.38471278 367.49002776 120.3435024 375.50292969 122.82788086 C379.3646381 124.00551174 382.71365593 124.69976405 386.75 124.25 C392.95288446 120.12880919 396.27276726 111.07438035 398.3671875 104.234375 C400.71226846 92.07824103 396.41249859 81.8386055 389.7109375 71.87109375 C379.79240029 58.6134474 363.38638425 47.14305552 347.7578125 41.53515625 C340.92544474 40.56480052 335.89455722 41.90159917 329.625 44.375 Z M203.625 120 C202.34257416 120.06485092 202.34257416 120.06485092 201.03424072 120.13101196 C163.91301402 122.06329468 126.60495112 127.24932597 90.75 137.25 C90.93060099 139.17135556 90.93060099 139.17135556 91.75 141.25 C93.59968406 142.76169633 93.59968406 142.76169633 96 143.94921875 C96.90532471 144.43181152 97.81064941 144.9144043 98.7434082 145.41162109 C99.7355835 145.91516113 100.72775879 146.41870117 101.75 146.9375 C102.78020264 147.46424316 103.81040527 147.99098633 104.87182617 148.53369141 C132.85536614 162.47369871 162.88067878 168.67144086 193.75 172.25 C194.6268042 172.3545752 195.5036084 172.45915039 196.40698242 172.56689453 C224.10088973 175.37623927 254.32516035 175.04592738 281.75 170.25 C282.91789063 170.04600586 284.08578125 169.84201172 285.2890625 169.63183594 C313.52814383 164.52650729 346.58812826 157.3882796 369.75 139.25 C369.75 138.59 369.75 137.93 369.75 137.25 C332.63641643 126.80918183 294.70140658 121.14220483 256.1875 119.6875 C255.17365234 119.64431641 254.15980469 119.60113281 253.11523438 119.55664062 C236.60672253 118.91818989 220.12026369 119.16195951 203.625 120 Z " fill="#E3E3E3" transform="translate(172.25,252.75)"/>
<path d="M0 0 C1.36125 1.3921875 1.36125 1.3921875 2.75 2.8125 C3.86375 3.8953125 3.86375 3.8953125 5 5 C11.1686365 4.68230198 15.67370162 1.54319234 20.87890625 -1.50390625 C23.96265293 -2.98209771 25.64802462 -3.34331219 29 -3 C29.4021875 -1.453125 29.4021875 -1.453125 29.8125 0.125 C32.10780967 7.88533268 35.35392167 11.54823256 42 16 C41.9375 18.25 41.9375 18.25 41 21 C38.34257905 23.0898813 35.46449449 25 32 25 C32.70125 25.680625 33.4025 26.36125 34.125 27.0625 C40.330495 33.32103342 44.87106613 38.17820688 45.375 47.375 C45.14548743 54.58652652 42.13413444 59.21449392 37 64.125 C26.35913343 73.01572404 14.79978041 76.56595769 1.12890625 76.3125 C-3.53571173 75.84662055 -6.94153324 74.24713764 -11 72 C-13.09948789 70.90762686 -15.20389763 69.82467415 -17.3125 68.75 C-18.29863281 68.22921875 -19.28476562 67.7084375 -20.30078125 67.171875 C-23.12108227 65.73450623 -23.12108227 65.73450623 -27 66 C-27.99 68.31 -28.98 70.62 -30 73 C-32.32758311 72.06896676 -33.74357132 71.34617872 -35.25 69.3125 C-36.32012626 66.01294404 -36.3631189 63.44962955 -36 60 C-32.31338395 53.17865653 -24.14137867 51.47011062 -17.33203125 48.83789062 C-9.78389197 45.76934489 -7.10981307 43.64158876 -3.75 36.25 C-2.09741138 29.08878267 -2.28810074 23.19540131 -5.83203125 16.69140625 C-7.95190846 13.62148373 -9.4103608 12.1965464 -13 11 C-16.80585475 10.4925527 -20.44834189 10.13903857 -23.88671875 12.046875 C-26.0400156 13.8195649 -27.74565394 15.49130789 -29 18 C-29.38015363 23.7023044 -29.15822393 27.0285995 -26 32 C-23.10962551 33.98570509 -23.10962551 33.98570509 -19.8125 35.375 C-18.72582031 35.87773437 -17.63914062 36.38046875 -16.51953125 36.8984375 C-15.68808594 37.26195312 -14.85664063 37.62546875 -14 38 C-14.33 39.32 -14.66 40.64 -15 42 C-22.4016849 42 -25.74809475 40.19752796 -31.15234375 35.203125 C-35.11127316 30.48254109 -35.91452449 25.00227996 -36 19 C-35.24605214 11.05362892 -32.96731129 5.83829775 -27.125 0.25 C-18.27478957 -6.12215151 -9.1867963 -4.99940041 0 0 Z M11.75 9.875 C9.34045023 12.80088186 9.56516216 14.94211576 9.734375 18.640625 C10.11228369 21.99734338 10.81165669 24.83108451 12 28 C12.66 28.33 13.32 28.66 14 29 C16.48618701 27.77713282 16.48618701 27.77713282 19.125 26.0625 C20.49011719 25.21365234 20.49011719 25.21365234 21.8828125 24.34765625 C22.93082031 23.68056641 22.93082031 23.68056641 24 23 C23.63164226 16.86070431 22.28289877 14.18329647 18 10 C15.3217624 8.62030184 14.54500161 8.78805493 11.75 9.875 Z M9.375 38 C8.13941226 39.56074241 6.9068995 41.12451131 5.71484375 42.71875 C1.60554232 47.93836407 -2.93141697 50.39746538 -9 53 C-9 53.66 -9 54.32 -9 55 C-5.89779023 56.64954167 -2.79290789 58.2939881 0.3125 59.9375 C1.63411133 60.64036133 1.63411133 60.64036133 2.98242188 61.35742188 C4.25375977 62.0293457 4.25375977 62.0293457 5.55078125 62.71484375 C6.72120972 63.33540649 6.72120972 63.33540649 7.9152832 63.96850586 C12.54312476 66.25830918 16.92012478 66.78563975 22 66 C26.15644149 62.99321254 28.03510456 60.01745631 29 55 C29.10194089 47.91510805 27.23128145 43.34668436 22.25 38.1875 C17.68486016 35.77812064 13.6378203 34.75213691 9.375 38 Z " fill="#DFDFDF" transform="translate(445,458)"/>
<path d="M0 0 C2.30163882 3.45245824 2.34490322 4.94738713 2 9 C1.34 9.66 0.68 10.32 0 11 C-1.32 11 -2.64 11 -4 11 C-2.60255743 14.85960328 -1.29484984 18.46490213 0.6875 22.0625 C2.2505878 25.56083937 2.22741831 28.2096948 2 32 C3.43903046 31.37853192 4.87616793 30.75267941 6.3125 30.125 C7.11300781 29.77695312 7.91351563 29.42890625 8.73828125 29.0703125 C11.1961834 27.97428106 11.1961834 27.97428106 14 26 C13.39811941 20.49709177 10.72359343 18.55694612 6.71484375 15.0625 C5 13 5 13 4.58203125 10.515625 C5.06936542 7.58251095 5.94184715 6.09522796 7.75 3.75 C8.26046875 3.06421875 8.7709375 2.3784375 9.296875 1.671875 C11.23831596 -0.23394319 12.29482906 -0.80829497 15 -1 C15.99 -0.34 16.98 0.32 18 1 C18.1875 4.625 18.1875 4.625 18 8 C18.56203125 8.27585937 19.1240625 8.55171875 19.703125 8.8359375 C22.08618794 10.04368028 24.4179008 11.32176809 26.75 12.625 C27.54921875 13.07101562 28.3484375 13.51703125 29.171875 13.9765625 C29.77515625 14.31429688 30.3784375 14.65203125 31 15 C29.59449154 19.47207238 27.3635857 21.80049165 24 25 C21.54753528 27.59024753 21.54753528 27.59024753 21 30.9375 C22.42666866 33.88000411 24.67039141 35.72585828 27 38 C31.64708368 44.04009438 30.84184704 51.60034353 30.29736328 58.86669922 C29.34082405 65.72896507 25.20787598 70.30720535 19.9375 74.4375 C18.63453555 75.30614296 17.32308532 76.16232334 16 77 C15.21625 77.598125 14.4325 78.19625 13.625 78.8125 C4.34536855 83.01042851 -9.36569073 81.43169415 -19 79 C-29.85879464 74.54954911 -36.70549877 65.63751971 -41.23828125 55.17578125 C-44.98288506 44.47965652 -44.74338974 29.39478063 -40.1171875 19.10546875 C-38.54868455 16.14944396 -37.11849962 13.62024953 -35 11 C-34.06994141 9.73929687 -34.06994141 9.73929687 -33.12109375 8.453125 C-29.4684901 4.07741707 -26.45259633 0.93896118 -20.671875 0.171875 C-17.66146717 -0.05148505 -14.67748937 -0.078148 -11.66015625 -0.03515625 C-7.24237949 0.00727704 -4.3393768 -1.33519286 0 0 Z M-20.5078125 10.30859375 C-25.92422904 16.44814444 -27.40568243 24.90905443 -27.2734375 32.84375 C-26.83664736 36.28815225 -25.65380965 37.82251516 -23 40 C-19.49721894 41.07216639 -19.49721894 41.07216639 -16 41 C-15.01 40.34 -14.02 39.68 -13 39 C-12.17902735 34.07416411 -13.17186947 31.32258677 -15.5 26.9375 C-18.97144613 20.3715076 -18.97144613 20.3715076 -18 16 C-16.80830013 14.05629642 -15.52954146 12.28643447 -14.09375 10.515625 C-12.80493824 9.04121115 -12.80493824 9.04121115 -13 7 C-16.52905429 7 -17.89569443 8.02786379 -20.5078125 10.30859375 Z M-10.84375 43.8203125 C-15.50732825 45.56338259 -20.0548771 45.89292057 -25 46 C-24.10638913 54.97047836 -20.24368237 64.64952553 -13.375 70.75 C-8.35637199 74.38571718 -4.25746779 75.54890068 2 75 C7.51631856 72.94490093 10.60001585 70.00140487 13.0859375 64.671875 C14.80604736 59.64386155 14.99721023 53.93772744 13.27734375 48.87109375 C11.2307929 45.03484661 8.74391573 42.17669519 5 40 C-1.05432654 38.88798084 -5.44853642 41.40881552 -10.84375 43.8203125 Z " fill="#DEDEDE" transform="translate(207,454)"/>
<path d="M0 0 C5.90033646 3.16684725 10.78071799 6.72233273 12.9375 13.3125 C13.57664543 19.76609342 13.92947106 25.90402308 9.9375 31.3125 C8.23741206 32.94024378 6.49764489 34.4521215 4.65625 35.91796875 C2.96528375 37.28995727 1.4505735 38.74868318 -0.0625 40.3125 C0.45699219 40.59222656 0.97648438 40.87195313 1.51171875 41.16015625 C7.63063664 44.67768576 11.63940854 48.41822561 13.9375 55.3125 C14.59614673 63.15980527 15.08952698 70.67786176 10.54296875 77.453125 C2.80154081 86.41886637 -8.37012441 89.61642671 -19.625 91.8125 C-23.08989401 91.10175251 -24.92389588 89.058828 -27.4140625 86.625 C-29.10246825 85.00105762 -29.10246825 85.00105762 -32.0625 85.3125 C-32.0625 88.6125 -32.0625 91.9125 -32.0625 95.3125 C-34.0425 95.8075 -34.0425 95.8075 -36.0625 96.3125 C-38.93532 94.26048571 -39.92538636 92.74212274 -41 89.375 C-41.07673529 85.61497068 -40.37843124 84.24601291 -38.0625 81.3125 C-34.17594537 77.5402558 -29.28870918 74.7711851 -24.0625 73.3125 C-18.88581919 73.66400302 -16.63771424 76.29660993 -13.125 79.81640625 C-10.56071908 81.67648124 -9.16524813 81.74400802 -6.0625 81.3125 C-1.83844656 76.9375875 -1.6534643 72.10521716 -1.72265625 66.30078125 C-2.37186119 60.5922551 -4.67268871 55.63296408 -8.8125 51.61328125 C-13.67777734 47.95383774 -18.20460437 46.92310487 -24.15625 46.9453125 C-26.4123355 47.19517181 -26.4123355 47.19517181 -28.5625 49.8125 C-29.0575 50.6375 -29.5525 51.4625 -30.0625 52.3125 C-31.7125 51.9825 -33.3625 51.6525 -35.0625 51.3125 C-34.69393269 47.99539418 -34.38019052 46.62084668 -31.9375 44.25 C-31.31875 43.610625 -30.7 42.97125 -30.0625 42.3125 C-30.16667827 40.30910454 -30.16667827 40.30910454 -31.0625 38.3125 C-31.40310811 36.64730481 -31.73808396 34.98092534 -32.0625 33.3125 C-30.60369891 33.45357747 -29.14546449 33.60052415 -27.6875 33.75 C-26.87539063 33.83121094 -26.06328125 33.91242188 -25.2265625 33.99609375 C-23.0625 34.3125 -23.0625 34.3125 -21.0625 35.3125 C-15.80970662 35.65694547 -12.23615376 35.88991751 -8.0625 32.3125 C-4.74281315 27.50467766 -4.32072847 22.9723184 -5.0625 17.3125 C-6.72968706 12.66192557 -8.75874052 9.79911659 -13.0625 7.3125 C-18.64043957 6.69272894 -22.30730159 7.07031927 -27.0625 10.3125 C-29.3125 13.14583333 -29.3125 13.14583333 -31.0625 16.3125 C-31.64 17.26125 -32.2175 18.21 -32.8125 19.1875 C-33.225 19.88875 -33.6375 20.59 -34.0625 21.3125 C-35.3825 20.9825 -36.7025 20.6525 -38.0625 20.3125 C-37.92666422 14.86672002 -37.41246902 10.26185682 -33.87890625 5.953125 C-24.65023112 -2.38245253 -11.57503724 -4.73524251 0 0 Z " fill="#DDDDDD" transform="translate(624.0625,455.6875)"/>
<path d="M0 0 C2.63344734 0.96190129 4.91127497 1.91886547 7.375 3.1875 C8.00277344 3.47947266 8.63054687 3.77144531 9.27734375 4.07226562 C12.08733028 5.48332798 13.75296291 6.43812992 15.0390625 9.36328125 C14.99158277 12.56816296 14.04033907 14.97253846 13 18 C12.11915472 27.51517747 13.03100558 35.08159081 16.16015625 44.1015625 C17.83055118 49.86636731 16.74909569 54.70363433 14.4375 60.125 C11.31906298 65.67382033 7.30246891 69.82454496 1.234375 71.984375 C-6.23324899 73.58737282 -12.93219033 72.90648926 -20 70 C-23.14726165 67.86754167 -24.89601427 65.1559786 -27 62 C-26.625 59.8125 -26.625 59.8125 -26 58 C-22.87731293 57.51016673 -20.09720045 57.28364071 -17 58 C-15.640625 59.78125 -15.640625 59.78125 -14.5625 62 C-13.52508267 64.22392593 -13.52508267 64.22392593 -12 66 C-8.51832992 66.99641806 -5.51129609 66.79566315 -2 66 C0.93423195 64.20353146 2.47205355 63.0558929 4 60 C4.66985275 53.56941359 2.62171977 48.81694074 0 43 C-4.18238834 43.54769371 -6.59868545 45.89888889 -9.75 48.5625 C-10.73484375 49.38878906 -11.7196875 50.21507812 -12.734375 51.06640625 C-13.48203125 51.70449219 -14.2296875 52.34257813 -15 53 C-18.91373475 51.77475421 -20.31347296 49.29883978 -22.19873047 45.79541016 C-26.16570908 37.84118504 -28.9418202 31.06182758 -27 22 C-23.22391044 11.45191511 -11.54508103 -0.78769901 0 0 Z M-11 11 C-14.66973771 16.02889983 -15.63330611 20.86348221 -15 27 C-13.87772214 31.09558543 -12.35665376 34.46501936 -10 38 C-6.56769552 37.73606499 -6.56769552 37.73606499 -3 37 C1.18309772 30.72535343 0.12073497 22.29775834 0 15 C-1.60875 14.01 -1.60875 14.01 -3.25 13 C-4.15492188 12.443125 -4.15492188 12.443125 -5.078125 11.875 C-7.25479385 10.72375977 -7.25479385 10.72375977 -11 11 Z " fill="#DFDFDF" transform="translate(368,480)"/>
<path d="M0 0 C1.921875 0.94140625 1.921875 0.94140625 2.96875 3.2265625 C3.20078125 4.14308594 3.4328125 5.05960937 3.671875 6.00390625 C3.91421875 6.92300781 4.1565625 7.84210938 4.40625 8.7890625 C4.57640625 9.49933594 4.7465625 10.20960938 4.921875 10.94140625 C10.69545259 8.77631465 15.12323023 5.79278608 19.921875 1.94140625 C23.12385152 3.30339217 23.77950577 3.64428785 25.359375 6.94140625 C25.70935547 7.86373047 25.70935547 7.86373047 26.06640625 8.8046875 C27.42134992 12.1889532 29.15613222 15.37702241 30.8359375 18.609375 C35.0045869 27.5614746 33.32173661 37.67826006 30.24609375 46.7109375 C26.07553289 56.88513759 19.6969825 66.16629875 11.921875 73.94140625 C9.796875 73.56640625 9.796875 73.56640625 7.921875 72.94140625 C8.53127996 70.16102005 9.36772358 67.84418419 10.69921875 65.33203125 C11.04791016 64.65914062 11.39660156 63.98625 11.75585938 63.29296875 C12.48426303 61.90577878 13.21597041 60.52031793 13.95117188 59.13671875 C19.09124269 49.17842317 21.04858599 37.92747405 17.671875 27.00390625 C16.22859047 23.26103441 14.31069387 20.15395577 11.921875 16.94140625 C10.931875 17.27140625 9.941875 17.60140625 8.921875 17.94140625 C7.99205241 20.73087401 7.79329881 22.43750632 7.7890625 25.3203125 C7.78777344 26.15884766 7.78648437 26.99738281 7.78515625 27.86132812 C7.79095703 29.1694043 7.79095703 29.1694043 7.796875 30.50390625 C7.79300781 31.37982422 7.78914062 32.25574219 7.78515625 33.15820312 C7.78708984 34.41407227 7.78708984 34.41407227 7.7890625 35.6953125 C7.79019043 36.46174072 7.79131836 37.22816895 7.79248047 38.01782227 C7.80318806 40.02584493 7.80318806 40.02584493 8.921875 41.94140625 C10.56550634 42.66300049 12.23237886 43.33492046 13.921875 43.94140625 C11.9692556 49.62990459 8.62435083 53.26924816 3.921875 56.94140625 C0.796875 57.81640625 0.796875 57.81640625 -2.078125 56.94140625 C-4.66503747 55.29195289 -6.47713415 53.56725283 -8.078125 50.94140625 C-8.76183757 47.54237804 -8.46732913 44.38116891 -7.55859375 41.01953125 C-5.92166684 33.93948964 -6.67465087 25.03821881 -8.078125 17.94140625 C-8.738125 16.95140625 -9.398125 15.96140625 -10.078125 14.94140625 C-10.51071775 11.66606111 -10.79102632 9.14785465 -9.0625 6.22265625 C-3.909274 -0.11022389 -3.909274 -0.11022389 0 0 Z " fill="#DADADA" transform="translate(550.078125,477.05859375)"/>
<path d="M0 0 C2.92033591 1.66058317 5.29689575 3.144047 7.4375 5.75 C8 8 8 8 7.5390625 11.390625 C6.78845731 16.9214001 6.89217499 22.42851 6.9375 28 C6.94201172 29.06089844 6.94652344 30.12179687 6.95117188 31.21484375 C6.96286157 33.80995598 6.97924724 36.40494709 7 39 C8.98 39 10.96 39 13 39 C13 43.90979053 11.94086056 44.6747008 8.6875 48.1875 C7.88699219 49.06792969 7.08648437 49.94835937 6.26171875 50.85546875 C4 53 4 53 1 54 C-0.75390625 52.9609375 -0.75390625 52.9609375 -2.5625 51.375 C-3.16191406 50.86710938 -3.76132812 50.35921875 -4.37890625 49.8359375 C-7.9187728 45.82693201 -8.27180331 41.57917901 -8.4140625 36.38671875 C-8.45273437 35.13955078 -8.49140625 33.89238281 -8.53125 32.60742188 C-8.5621875 31.31384766 -8.593125 30.02027344 -8.625 28.6875 C-8.66367187 27.37458984 -8.70234375 26.06167969 -8.7421875 24.70898438 C-8.83633117 21.47279563 -8.92196352 18.23661065 -9 15 C-12.7950451 14.62716282 -12.7950451 14.62716282 -14.72949219 16.16674805 C-16.4537199 18.65468538 -16.35770855 20.31986494 -16.328125 23.33203125 C-16.32296875 24.37810547 -16.3178125 25.42417969 -16.3125 26.50195312 C-16.291875 27.59443359 -16.27125 28.68691406 -16.25 29.8125 C-16.24484375 30.89337891 -16.2396875 31.97425781 -16.234375 33.08789062 C-16.19372039 37.22703771 -16.15355394 41.1587501 -15.40869141 45.23950195 C-15 48 -15 48 -16.2578125 49.8984375 C-18.95623412 52.03233577 -21.17900191 53.75370057 -24.5 54.75 C-28.45292019 53.56412394 -31.07603161 50.83127775 -34 48 C-33.47731534 45.23723823 -32.89130413 42.6739124 -32 40 C-31.74205793 36.00424285 -31.76866293 32.00319945 -31.75 28 C-31.729375 26.89398438 -31.70875 25.78796875 -31.6875 24.6484375 C-31.68234375 23.58882813 -31.6771875 22.52921875 -31.671875 21.4375 C-31.6625293 20.46683594 -31.65318359 19.49617188 -31.64355469 18.49609375 C-32.05929572 15.5847675 -32.69581302 14.75583816 -35 13 C-35.66 12.67 -36.32 12.34 -37 12 C-35.55575365 8.76138697 -33.74227753 6.38030837 -31.375 3.75 C-30.42753906 2.69039063 -30.42753906 2.69039063 -29.4609375 1.609375 C-28.97882813 1.07828125 -28.49671875 0.5471875 -28 0 C-23.44310722 0.54376368 -23.44310722 0.54376368 -21.41796875 2.62890625 C-20.80888672 3.58603516 -20.80888672 3.58603516 -20.1875 4.5625 C-19.55908203 5.52349609 -19.55908203 5.52349609 -18.91796875 6.50390625 C-18.61503906 6.99761719 -18.31210937 7.49132812 -18 8 C-14.40642281 7.43009348 -12.82750729 6.13617523 -10.375 3.5 C-6.75442396 -0.35773167 -5.29127877 -1.56333236 0 0 Z " fill="#E0E0E0" transform="translate(325,480)"/>
<path d="M0 0 C1.67835938 0.62455078 1.67835938 0.62455078 3.390625 1.26171875 C4.51984375 1.67035156 5.6490625 2.07898438 6.8125 2.5 C9.640625 3.94921875 9.640625 3.94921875 11.15625 5.8671875 C11.640625 7.94921875 11.640625 7.94921875 10.68310547 9.71313477 C9.35904922 12.55318891 9.41340994 14.68214309 9.4453125 17.80859375 C9.45498047 19.48115234 9.45498047 19.48115234 9.46484375 21.1875 C9.48160156 22.34636719 9.49835938 23.50523437 9.515625 24.69921875 C9.52464844 25.87355469 9.53367187 27.04789062 9.54296875 28.2578125 C9.56652437 31.15515411 9.59941848 34.05208316 9.640625 36.94921875 C11.290625 36.94921875 12.940625 36.94921875 14.640625 36.94921875 C15.44921875 38.58984375 15.44921875 38.58984375 15.640625 40.94921875 C14.05491839 43.07139807 12.54772242 44.83257435 10.703125 46.69921875 C10.22166016 47.20582031 9.74019531 47.71242188 9.24414062 48.234375 C8.05408546 49.48334379 6.84875887 50.71772905 5.640625 51.94921875 C1.78959199 51.41245972 0.32264913 49.83320952 -2.109375 46.88671875 C-3.02976562 45.78650391 -3.02976562 45.78650391 -3.96875 44.6640625 C-4.42765625 44.09816406 -4.8865625 43.53226563 -5.359375 42.94921875 C-10.2816988 44.68702841 -13.9273712 47.45595143 -18.0546875 50.5859375 C-18.81523437 51.03582031 -19.57578125 51.48570312 -20.359375 51.94921875 C-23.359375 50.94921875 -23.359375 50.94921875 -24.9296875 48.1484375 C-25.69925781 46.41013672 -25.69925781 46.41013672 -26.484375 44.63671875 C-27.00257813 43.48558594 -27.52078125 42.33445312 -28.0546875 41.1484375 C-30.91248556 34.14084286 -31.71936749 26.66756004 -29.59375 19.29296875 C-24.10425212 7.07690305 -13.56321241 -4.24244667 0 0 Z M-13.359375 8.94921875 C-16.89728385 12.62320102 -17.21600034 16.15703549 -17.609375 21.07421875 C-17.24413804 26.73539164 -16.50143413 33.80715962 -12.359375 37.94921875 C-9.81451828 37.78503445 -8.64049501 37.20696937 -6.76171875 35.484375 C-4.61188936 31.59791462 -4.84612163 27.88201814 -4.859375 23.51171875 C-4.83101563 22.66544922 -4.80265625 21.81917969 -4.7734375 20.94726562 C-4.75939891 16.46544474 -4.92142797 14.52803875 -7.703125 10.8515625 C-10.22134507 8.65809094 -10.22134507 8.65809094 -13.359375 8.94921875 Z " fill="#DBDBDB" transform="translate(272.359375,482.05078125)"/>
<path d="M0 0 C1.1171875 1.828125 1.1171875 1.828125 1.875 4.25 C3.41530095 8.73612653 5.43017799 12.49893842 7.875 16.5625 C11.61171241 23.50905648 11.61171241 23.50905648 11.0625 27.5 C8.95689439 33.53976346 4.42586978 38.55925101 0.34912109 43.39111328 C-0.94494372 44.93434294 -2.19815753 46.51155121 -3.44921875 48.08984375 C-4.20847656 49.00894531 -4.96773437 49.92804687 -5.75 50.875 C-6.42546875 51.69742188 -7.1009375 52.51984375 -7.796875 53.3671875 C-10 55 -10 55 -12.8125 54.94140625 C-16.40699368 53.87979721 -19.82699918 52.5745671 -23.25 51.0625 C-23.87390625 50.79759766 -24.4978125 50.53269531 -25.140625 50.25976562 C-27.86246154 49.07776118 -29.88304323 48.11695677 -32 46 C-31.7282197 43.99070993 -31.38502954 41.99069419 -31 40 C-30.94472064 38.05284654 -30.93686877 36.10385922 -30.97265625 34.15625 C-30.98490234 33.07472656 -30.99714844 31.99320312 -31.00976562 30.87890625 C-31.04492288 28.62623775 -31.08398573 26.37362682 -31.12695312 24.12109375 C-31.23285466 13.66798885 -31.23285466 13.66798885 -29 9 C-25.70269805 5.70269805 -21.31985652 4.60484683 -17 3 C-15.95972656 2.60941406 -14.91945313 2.21882813 -13.84765625 1.81640625 C-12.28337891 1.25759766 -12.28337891 1.25759766 -10.6875 0.6875 C-9.72199219 0.34074219 -8.75648438 -0.00601562 -7.76171875 -0.36328125 C-4.68435006 -1.07277361 -2.94917209 -1.13586421 0 0 Z M-15 9 C-17.76708094 11.76708094 -16.28498625 20.08713768 -16.3125 23.8125 C-16.34150391 25.10994141 -16.37050781 26.40738281 -16.40039062 27.74414062 C-16.40876953 28.99001953 -16.41714844 30.23589844 -16.42578125 31.51953125 C-16.44036377 32.66526611 -16.45494629 33.81100098 -16.4699707 34.99145508 C-15.89970709 38.64203091 -14.88749429 39.77146785 -12 42 C-9.45948786 42.97610842 -9.45948786 42.97610842 -7 43 C-3.95008803 39.95008803 -3.74470421 36.45935125 -3.4375 32.25 C-3.45287096 26.5781164 -5.32025532 22.34949149 -7.8125 17.375 C-8.16820068 16.66375977 -8.52390137 15.95251953 -8.89038086 15.21972656 C-10.97851393 11.05460247 -10.97851393 11.05460247 -15 9 Z " fill="#D8D8D8" transform="translate(527,480)"/>
<path d="M0 0 C0.66 0.33 1.32 0.66 2 1 C3.60128861 1.17530981 5.20872107 1.29598137 6.81689453 1.38891602 C7.81778107 1.44890274 8.8186676 1.50888947 9.84988403 1.57069397 C11.47493362 1.66138405 11.47493362 1.66138405 13.1328125 1.75390625 C14.79327103 1.85166603 14.79327103 1.85166603 16.48727417 1.95140076 C20.03295749 2.1592046 23.57895809 2.36091684 27.125 2.5625 C29.52476289 2.70207376 31.92450284 2.84204259 34.32421875 2.98242188 C40.21588698 3.32620429 46.10782724 3.66498219 52 4 C52 4.33 52 4.66 52 5 C34.24435183 5.33536376 16.69607218 4.30133447 -1 3 C-0.67 2.01 -0.34 1.02 0 0 Z " fill="#909090" transform="translate(408,355)"/>
<path d="M0 0 C-1.36370299 2.99220268 -2.94908083 5.29026529 -5.125 7.75 C-5.93324219 8.67039062 -5.93324219 8.67039062 -6.7578125 9.609375 C-7.16773438 10.06828125 -7.57765625 10.5271875 -8 11 C-7.01 11.33 -6.02 11.66 -5 12 C-3.9407082 15.17787541 -3.88541061 17.42588943 -3.90234375 20.76171875 C-3.90556641 21.87998047 -3.90878906 22.99824219 -3.91210938 24.15039062 C-3.92048828 25.31763672 -3.92886719 26.48488281 -3.9375 27.6875 C-3.94201172 28.86634766 -3.94652344 30.04519531 -3.95117188 31.25976562 C-3.96296727 34.17322789 -3.9794273 37.08658863 -4 40 C-4.33 40 -4.66 40 -5 40 C-5.01458252 39.2886792 -5.02916504 38.5773584 -5.04418945 37.84448242 C-5.11861006 34.62493668 -5.21529 31.40643482 -5.3125 28.1875 C-5.33505859 27.06794922 -5.35761719 25.94839844 -5.38085938 24.79492188 C-5.4340332 23.18520508 -5.4340332 23.18520508 -5.48828125 21.54296875 C-5.51446533 20.55321045 -5.54064941 19.56345215 -5.56762695 18.54370117 C-6.06176373 15.63663677 -6.6902431 14.76320293 -9 13 C-9.66 12.67 -10.32 12.34 -11 12 C-9.56438314 8.81293058 -7.79733671 6.37830895 -5.5 3.75 C-4.8915625 3.04359375 -4.283125 2.3371875 -3.65625 1.609375 C-2 0 -2 0 0 0 Z " fill="#A2A2A2" transform="translate(299,480)"/>
<path d="M0 0 C-2.02002081 2.02002081 -6.02648589 1.36837729 -8.8125 1.5 C-15.06055326 1.5203349 -15.06055326 1.5203349 -21 3 C-22.07411553 4.85596575 -22.07411553 4.85596575 -23 7 C-24.7265625 8.921875 -24.7265625 8.921875 -26.625 10.75 C-27.57246094 11.67039062 -27.57246094 11.67039062 -28.5390625 12.609375 C-29.02117187 13.06828125 -29.50328125 13.5271875 -30 14 C-30.33 13.01 -30.66 12.02 -31 11 C-22.69945695 0.11786257 -22.69945695 0.11786257 -15.58984375 -0.98828125 C-10.32202952 -1.42777898 -5.05755903 -1.68585301 0 0 Z " fill="#C7C7C7" transform="translate(202,455)"/>
<path d="M0 0 C0.66 0.33 1.32 0.66 2 1 C-0.45023758 3.50804718 -2.91147598 6.0050076 -5.375 8.5 C-6.42300781 9.57314453 -6.42300781 9.57314453 -7.4921875 10.66796875 C-8.1625 11.34472656 -8.8328125 12.02148438 -9.5234375 12.71875 C-10.14138184 13.34716797 -10.75932617 13.97558594 -11.39599609 14.62304688 C-13 16 -13 16 -15 16 C-13.48625275 12.42723096 -11.38105612 10.14319629 -8.625 7.4375 C-7.85414063 6.67308594 -7.08328125 5.90867187 -6.2890625 5.12109375 C-4.27286711 3.25284444 -2.23393837 1.59639888 0 0 Z " fill="#B9B9B9" transform="translate(261,481)"/>
<path d="M0 0 C0.66 0.33 1.32 0.66 2 1 C-2.32893185 6.18419194 -6.76564995 10.72706118 -12 15 C-12 12 -12 12 -9.375 9.08203125 C-8.25750594 7.98449244 -7.13214357 6.89492105 -6 5.8125 C-5.42765625 5.25369141 -4.8553125 4.69488281 -4.265625 4.11914062 C-2.85037212 2.73926907 -1.42602845 1.36873266 0 0 Z " fill="#BCBCBC" transform="translate(245,303)"/>
<path d="M0 0 C0.66 0.33 1.32 0.66 2 1 C-2.62 5.62 -7.24 10.24 -12 15 C-12.66 14.67 -13.32 14.34 -14 14 C-9.61932717 8.89662734 -5.32423478 4.12628195 0 0 Z " fill="#AEAEAE" transform="translate(359,481)"/>
<path d="M0 0 C-2.02002081 2.02002081 -6.02648589 1.36837729 -8.8125 1.5 C-14.98352301 1.72267876 -14.98352301 1.72267876 -21 3 C-20.67 2.01 -20.34 1.02 -20 0 C-17.22949974 -0.1946838 -14.45886998 -0.38102792 -11.6875 -0.5625 C-10.90181641 -0.61857422 -10.11613281 -0.67464844 -9.30664062 -0.73242188 C-8.1706543 -0.80493164 -8.1706543 -0.80493164 -7.01171875 -0.87890625 C-6.31522217 -0.9260376 -5.61872559 -0.97316895 -4.90112305 -1.02172852 C-3 -1 -3 -1 0 0 Z " fill="#6D6D6D" transform="translate(202,455)"/>
<path d="M0 0 C4.70588235 0.70588235 4.70588235 0.70588235 6 2 C6.04092937 4.33297433 6.04241723 6.66705225 6 9 C4.5 7.75 4.5 7.75 3 6 C3 4.68 3 3.36 3 2 C1.68 1.67 0.36 1.34 -1 1 C-0.67 0.67 -0.34 0.34 0 0 Z " fill="#606060" transform="translate(219,453)"/>
<path d="M0 0 C2.58243688 2.58243688 3.19358727 4.43834377 4 8 C3.125 11.875 3.125 11.875 2 15 C1.67 15 1.34 15 1 15 C0.67 10.05 0.34 5.1 0 0 Z " fill="#818181" transform="translate(534,497)"/>
<path d="M0 0 C2.0625 0.4375 2.0625 0.4375 4 1 C3.67 2.32 3.34 3.64 3 5 C2.34 4.01 1.68 3.02 1 2 C-0.65 3.65 -2.3 5.3 -4 7 C-4.66 6.67 -5.32 6.34 -6 6 C-4 4 -2 2 0 0 Z " fill="#A2A2A2" transform="translate(548,477)"/>
<path d="M0 0 C2 2 2 2 2.125 5.625 C2.08375 6.73875 2.0425 7.8525 2 9 C3.65 8.67 5.3 8.34 7 8 C6.67 8.66 6.34 9.32 6 10 C2.9375 10.625 2.9375 10.625 0 11 C0 7.37 0 3.74 0 0 Z " fill="#6E6E6E" transform="translate(207,477)"/>
<path d="M0 0 C0.66 0.33 1.32 0.66 2 1 C4.54615009 1.23172827 7.07396225 1.41894529 9.625 1.5625 C10.33140625 1.60568359 11.0378125 1.64886719 11.765625 1.69335938 C13.51018537 1.79944751 15.25506697 1.90022889 17 2 C17 2.33 17 2.66 17 3 C11.06 3 5.12 3 -1 3 C-0.67 2.01 -0.34 1.02 0 0 Z " fill="#777777" transform="translate(408,355)"/>
<path d="M0 0 C-3.08809695 1.76462683 -4.23312136 2 -8 2 C-7.67 3.32 -7.34 4.64 -7 6 C-7.99 6 -8.98 6 -10 6 C-10.33 4.68 -10.66 3.36 -11 2 C-7.17679443 0.57741188 -4.08718695 -0.24042276 0 0 Z " fill="#7E7E7E" transform="translate(271,388)"/>
</svg>
