<?xml version="1.0" encoding="UTF-8"?>
<svg version="1.1" xmlns="http://www.w3.org/2000/svg" width="828" height="182">
<path d="M0 0 C1.36125 1.3921875 1.36125 1.3921875 2.75 2.8125 C3.86375 3.8953125 3.86375 3.8953125 5 5 C11.1686365 4.68230198 15.67370162 1.54319234 20.87890625 -1.50390625 C23.96265293 -2.98209771 25.64802462 -3.34331219 29 -3 C29.4021875 -1.453125 29.4021875 -1.453125 29.8125 0.125 C32.10780967 7.88533268 35.35392167 11.54823256 42 16 C41.9375 18.25 41.9375 18.25 41 21 C38.34257905 23.0898813 35.46449449 25 32 25 C32.70125 25.680625 33.4025 26.36125 34.125 27.0625 C40.330495 33.32103342 44.87106613 38.17820688 45.375 47.375 C45.14548743 54.58652652 42.13413444 59.21449392 37 64.125 C26.35913343 73.01572404 14.79978041 76.56595769 1.12890625 76.3125 C-3.53571173 75.84662055 -6.94153324 74.24713764 -11 72 C-13.09948789 70.90762686 -15.20389763 69.82467415 -17.3125 68.75 C-18.29863281 68.22921875 -19.28476562 67.7084375 -20.30078125 67.171875 C-23.12108227 65.73450623 -23.12108227 65.73450623 -27 66 C-27.99 68.31 -28.98 70.62 -30 73 C-32.32758311 72.06896676 -33.74357132 71.34617872 -35.25 69.3125 C-36.32012626 66.01294404 -36.3631189 63.44962955 -36 60 C-32.31338395 53.17865653 -24.14137867 51.47011062 -17.33203125 48.83789062 C-9.78389197 45.76934489 -7.10981307 43.64158876 -3.75 36.25 C-2.09741138 29.08878267 -2.28810074 23.19540131 -5.83203125 16.69140625 C-7.95190846 13.62148373 -9.4103608 12.1965464 -13 11 C-16.80585475 10.4925527 -20.44834189 10.13903857 -23.88671875 12.046875 C-26.0400156 13.8195649 -27.74565394 15.49130789 -29 18 C-29.38015363 23.7023044 -29.15822393 27.0285995 -26 32 C-23.10962551 33.98570509 -23.10962551 33.98570509 -19.8125 35.375 C-18.72582031 35.87773438 -17.63914062 36.38046875 -16.51953125 36.8984375 C-15.68808594 37.26195312 -14.85664063 37.62546875 -14 38 C-14.33 39.32 -14.66 40.64 -15 42 C-22.4016849 42 -25.74809475 40.19752796 -31.15234375 35.203125 C-35.11127316 30.48254109 -35.91452449 25.00227996 -36 19 C-35.24605214 11.05362892 -32.96731129 5.83829775 -27.125 0.25 C-18.27478957 -6.12215151 -9.1867963 -4.99940041 0 0 Z M11.75 9.875 C9.34045023 12.80088186 9.56516216 14.94211576 9.734375 18.640625 C10.11228369 21.99734338 10.81165669 24.83108451 12 28 C12.66 28.33 13.32 28.66 14 29 C16.48618701 27.77713282 16.48618701 27.77713282 19.125 26.0625 C20.49011719 25.21365234 20.49011719 25.21365234 21.8828125 24.34765625 C22.93082031 23.68056641 22.93082031 23.68056641 24 23 C23.63164226 16.86070431 22.28289877 14.18329647 18 10 C15.3217624 8.62030184 14.54500161 8.78805493 11.75 9.875 Z M9.375 38 C8.13941226 39.56074241 6.9068995 41.12451131 5.71484375 42.71875 C1.60554232 47.93836407 -2.93141697 50.39746538 -9 53 C-9 53.66 -9 54.32 -9 55 C-5.89779023 56.64954167 -2.79290789 58.2939881 0.3125 59.9375 C1.63411133 60.64036133 1.63411133 60.64036133 2.98242188 61.35742188 C4.25375977 62.0293457 4.25375977 62.0293457 5.55078125 62.71484375 C6.72120972 63.33540649 6.72120972 63.33540649 7.9152832 63.96850586 C12.54312476 66.25830918 16.92012478 66.78563975 22 66 C26.15644149 62.99321254 28.03510456 60.01745631 29 55 C29.10194089 47.91510805 27.23128145 43.34668436 22.25 38.1875 C17.68486016 35.77812064 13.6378203 34.75213691 9.375 38 Z " fill="#DFDFDF" transform="translate(445,28)"/>
<path d="M0 0 C2.30163882 3.45245824 2.34490322 4.94738713 2 9 C1.34 9.66 0.68 10.32 0 11 C-1.32 11 -2.64 11 -4 11 C-2.60255743 14.85960328 -1.29484984 18.46490213 0.6875 22.0625 C2.2505878 25.56083937 2.22741831 28.2096948 2 32 C3.43903046 31.37853192 4.87616793 30.75267941 6.3125 30.125 C7.11300781 29.77695312 7.91351563 29.42890625 8.73828125 29.0703125 C11.1961834 27.97428106 11.1961834 27.97428106 14 26 C13.39811941 20.49709177 10.72359343 18.55694612 6.71484375 15.0625 C5 13 5 13 4.58203125 10.515625 C5.06936542 7.58251095 5.94184715 6.09522796 7.75 3.75 C8.26046875 3.06421875 8.7709375 2.3784375 9.296875 1.671875 C11.23831596 -0.23394319 12.29482906 -0.80829497 15 -1 C15.99 -0.34 16.98 0.32 18 1 C18.1875 4.625 18.1875 4.625 18 8 C18.56203125 8.27585937 19.1240625 8.55171875 19.703125 8.8359375 C22.08618794 10.04368028 24.4179008 11.32176809 26.75 12.625 C27.54921875 13.07101563 28.3484375 13.51703125 29.171875 13.9765625 C29.77515625 14.31429687 30.3784375 14.65203125 31 15 C29.59449154 19.47207238 27.3635857 21.80049165 24 25 C21.54753528 27.59024753 21.54753528 27.59024753 21 30.9375 C22.42666866 33.88000411 24.67039141 35.72585828 27 38 C31.64708368 44.04009438 30.84184704 51.60034353 30.29736328 58.86669922 C29.34082405 65.72896507 25.20787598 70.30720535 19.9375 74.4375 C18.63453555 75.30614296 17.32308532 76.16232334 16 77 C15.21625 77.598125 14.4325 78.19625 13.625 78.8125 C4.34536855 83.01042851 -9.36569073 81.43169415 -19 79 C-29.85879464 74.54954911 -36.70549877 65.63751971 -41.23828125 55.17578125 C-44.98288506 44.47965652 -44.74338974 29.39478063 -40.1171875 19.10546875 C-38.54868455 16.14944396 -37.11849962 13.62024953 -35 11 C-34.06994141 9.73929688 -34.06994141 9.73929688 -33.12109375 8.453125 C-29.4684901 4.07741707 -26.45259633 0.93896118 -20.671875 0.171875 C-17.66146717 -0.05148505 -14.67748937 -0.078148 -11.66015625 -0.03515625 C-7.24237949 0.00727704 -4.3393768 -1.33519286 0 0 Z M-20.5078125 10.30859375 C-25.92422904 16.44814444 -27.40568243 24.90905443 -27.2734375 32.84375 C-26.83664736 36.28815225 -25.65380965 37.82251516 -23 40 C-19.49721894 41.07216639 -19.49721894 41.07216639 -16 41 C-15.01 40.34 -14.02 39.68 -13 39 C-12.17902735 34.07416411 -13.17186947 31.32258677 -15.5 26.9375 C-18.97144613 20.3715076 -18.97144613 20.3715076 -18 16 C-16.80830013 14.05629642 -15.52954146 12.28643447 -14.09375 10.515625 C-12.80493824 9.04121115 -12.80493824 9.04121115 -13 7 C-16.52905429 7 -17.89569443 8.02786379 -20.5078125 10.30859375 Z M-10.84375 43.8203125 C-15.50732825 45.56338259 -20.0548771 45.89292057 -25 46 C-24.10638913 54.97047836 -20.24368237 64.64952553 -13.375 70.75 C-8.35637199 74.38571718 -4.25746779 75.54890068 2 75 C7.51631856 72.94490093 10.60001585 70.00140487 13.0859375 64.671875 C14.80604736 59.64386155 14.99721023 53.93772744 13.27734375 48.87109375 C11.2307929 45.03484661 8.74391573 42.17669519 5 40 C-1.05432654 38.88798084 -5.44853642 41.40881552 -10.84375 43.8203125 Z " fill="#DEDEDE" transform="translate(207,24)"/>
<path d="M0 0 C5.90033646 3.16684725 10.78071799 6.72233273 12.9375 13.3125 C13.57664543 19.76609342 13.92947106 25.90402308 9.9375 31.3125 C8.23741206 32.94024378 6.49764489 34.4521215 4.65625 35.91796875 C2.96528375 37.28995727 1.4505735 38.74868318 -0.0625 40.3125 C0.45699219 40.59222656 0.97648438 40.87195313 1.51171875 41.16015625 C7.63063664 44.67768576 11.63940854 48.41822561 13.9375 55.3125 C14.59614673 63.15980527 15.08952698 70.67786176 10.54296875 77.453125 C2.80154081 86.41886637 -8.37012441 89.61642671 -19.625 91.8125 C-23.08989401 91.10175251 -24.92389588 89.058828 -27.4140625 86.625 C-29.10246825 85.00105762 -29.10246825 85.00105762 -32.0625 85.3125 C-32.0625 88.6125 -32.0625 91.9125 -32.0625 95.3125 C-34.0425 95.8075 -34.0425 95.8075 -36.0625 96.3125 C-38.93532 94.26048571 -39.92538636 92.74212274 -41 89.375 C-41.07673529 85.61497068 -40.37843124 84.24601291 -38.0625 81.3125 C-34.17594537 77.5402558 -29.28870918 74.7711851 -24.0625 73.3125 C-18.88581919 73.66400302 -16.63771424 76.29660993 -13.125 79.81640625 C-10.56071908 81.67648124 -9.16524813 81.74400802 -6.0625 81.3125 C-1.83844656 76.9375875 -1.6534643 72.10521716 -1.72265625 66.30078125 C-2.37186119 60.5922551 -4.67268871 55.63296408 -8.8125 51.61328125 C-13.67777734 47.95383774 -18.20460437 46.92310487 -24.15625 46.9453125 C-26.4123355 47.19517181 -26.4123355 47.19517181 -28.5625 49.8125 C-29.0575 50.6375 -29.5525 51.4625 -30.0625 52.3125 C-31.7125 51.9825 -33.3625 51.6525 -35.0625 51.3125 C-34.69393269 47.99539418 -34.38019052 46.62084668 -31.9375 44.25 C-31.31875 43.610625 -30.7 42.97125 -30.0625 42.3125 C-30.16667827 40.30910454 -30.16667827 40.30910454 -31.0625 38.3125 C-31.40310811 36.64730481 -31.73808396 34.98092534 -32.0625 33.3125 C-30.60369891 33.45357747 -29.14546449 33.60052415 -27.6875 33.75 C-26.87539063 33.83121094 -26.06328125 33.91242187 -25.2265625 33.99609375 C-23.0625 34.3125 -23.0625 34.3125 -21.0625 35.3125 C-15.80970662 35.65694547 -12.23615376 35.88991751 -8.0625 32.3125 C-4.74281315 27.50467766 -4.32072847 22.9723184 -5.0625 17.3125 C-6.72968706 12.66192557 -8.75874052 9.79911659 -13.0625 7.3125 C-18.64043957 6.69272894 -22.30730159 7.07031927 -27.0625 10.3125 C-29.3125 13.14583333 -29.3125 13.14583333 -31.0625 16.3125 C-31.64 17.26125 -32.2175 18.21 -32.8125 19.1875 C-33.225 19.88875 -33.6375 20.59 -34.0625 21.3125 C-35.3825 20.9825 -36.7025 20.6525 -38.0625 20.3125 C-37.92666422 14.86672002 -37.41246902 10.26185682 -33.87890625 5.953125 C-24.65023112 -2.38245253 -11.57503724 -4.73524251 0 0 Z " fill="#DDDDDD" transform="translate(624.0625,25.6875)"/>
<path d="M0 0 C2.63344734 0.96190129 4.91127497 1.91886547 7.375 3.1875 C8.00277344 3.47947266 8.63054687 3.77144531 9.27734375 4.07226562 C12.08733028 5.48332798 13.75296291 6.43812992 15.0390625 9.36328125 C14.99158277 12.56816296 14.04033907 14.97253846 13 18 C12.11915472 27.51517747 13.03100558 35.08159081 16.16015625 44.1015625 C17.83055118 49.86636731 16.74909569 54.70363433 14.4375 60.125 C11.31906298 65.67382033 7.30246891 69.82454496 1.234375 71.984375 C-6.23324899 73.58737282 -12.93219033 72.90648926 -20 70 C-23.14726165 67.86754167 -24.89601427 65.1559786 -27 62 C-26.625 59.8125 -26.625 59.8125 -26 58 C-22.87731293 57.51016673 -20.09720045 57.28364071 -17 58 C-15.640625 59.78125 -15.640625 59.78125 -14.5625 62 C-13.52508267 64.22392593 -13.52508267 64.22392593 -12 66 C-8.51832992 66.99641806 -5.51129609 66.79566315 -2 66 C0.93423195 64.20353146 2.47205355 63.0558929 4 60 C4.66985275 53.56941359 2.62171977 48.81694074 0 43 C-4.18238834 43.54769371 -6.59868545 45.89888889 -9.75 48.5625 C-10.73484375 49.38878906 -11.7196875 50.21507812 -12.734375 51.06640625 C-13.48203125 51.70449219 -14.2296875 52.34257813 -15 53 C-18.91373475 51.77475421 -20.31347296 49.29883978 -22.19873047 45.79541016 C-26.16570908 37.84118504 -28.9418202 31.06182758 -27 22 C-23.22391044 11.45191511 -11.54508103 -0.78769901 0 0 Z M-11 11 C-14.66973771 16.02889983 -15.63330611 20.86348221 -15 27 C-13.87772214 31.09558543 -12.35665376 34.46501936 -10 38 C-6.56769552 37.73606499 -6.56769552 37.73606499 -3 37 C1.18309772 30.72535343 0.12073497 22.29775834 0 15 C-1.60875 14.01 -1.60875 14.01 -3.25 13 C-4.15492188 12.443125 -4.15492188 12.443125 -5.078125 11.875 C-7.25479385 10.72375977 -7.25479385 10.72375977 -11 11 Z " fill="#DFDFDF" transform="translate(368,50)"/>
<path d="M0 0 C1.921875 0.94140625 1.921875 0.94140625 2.96875 3.2265625 C3.20078125 4.14308594 3.4328125 5.05960938 3.671875 6.00390625 C3.91421875 6.92300781 4.1565625 7.84210937 4.40625 8.7890625 C4.57640625 9.49933594 4.7465625 10.20960937 4.921875 10.94140625 C10.69545259 8.77631465 15.12323023 5.79278608 19.921875 1.94140625 C23.12385152 3.30339217 23.77950577 3.64428785 25.359375 6.94140625 C25.70935547 7.86373047 25.70935547 7.86373047 26.06640625 8.8046875 C27.42134992 12.1889532 29.15613222 15.37702241 30.8359375 18.609375 C35.0045869 27.5614746 33.32173661 37.67826006 30.24609375 46.7109375 C26.07553289 56.88513759 19.6969825 66.16629875 11.921875 73.94140625 C9.796875 73.56640625 9.796875 73.56640625 7.921875 72.94140625 C8.53127996 70.16102005 9.36772358 67.84418419 10.69921875 65.33203125 C11.04791016 64.65914063 11.39660156 63.98625 11.75585938 63.29296875 C12.48426303 61.90577878 13.21597041 60.52031793 13.95117188 59.13671875 C19.09124269 49.17842317 21.04858599 37.92747405 17.671875 27.00390625 C16.22859047 23.26103441 14.31069387 20.15395577 11.921875 16.94140625 C10.931875 17.27140625 9.941875 17.60140625 8.921875 17.94140625 C7.99205241 20.73087401 7.79329881 22.43750632 7.7890625 25.3203125 C7.78777344 26.15884766 7.78648437 26.99738281 7.78515625 27.86132812 C7.79095703 29.1694043 7.79095703 29.1694043 7.796875 30.50390625 C7.79300781 31.37982422 7.78914062 32.25574219 7.78515625 33.15820312 C7.78708984 34.41407227 7.78708984 34.41407227 7.7890625 35.6953125 C7.79019043 36.46174072 7.79131836 37.22816895 7.79248047 38.01782227 C7.80318806 40.02584493 7.80318806 40.02584493 8.921875 41.94140625 C10.56550634 42.66300049 12.23237886 43.33492046 13.921875 43.94140625 C11.9692556 49.62990459 8.62435083 53.26924816 3.921875 56.94140625 C0.796875 57.81640625 0.796875 57.81640625 -2.078125 56.94140625 C-4.66503747 55.29195289 -6.47713415 53.56725283 -8.078125 50.94140625 C-8.76183757 47.54237804 -8.46732913 44.38116891 -7.55859375 41.01953125 C-5.92166684 33.93948964 -6.67465087 25.03821881 -8.078125 17.94140625 C-8.738125 16.95140625 -9.398125 15.96140625 -10.078125 14.94140625 C-10.51071775 11.66606111 -10.79102632 9.14785465 -9.0625 6.22265625 C-3.909274 -0.11022389 -3.909274 -0.11022389 0 0 Z " fill="#DADADA" transform="translate(550.078125,47.05859375)"/>
<path d="M0 0 C2.92033591 1.66058317 5.29689575 3.144047 7.4375 5.75 C8 8 8 8 7.5390625 11.390625 C6.78845731 16.9214001 6.89217499 22.42851 6.9375 28 C6.94201172 29.06089844 6.94652344 30.12179688 6.95117188 31.21484375 C6.96286157 33.80995598 6.97924724 36.40494709 7 39 C8.98 39 10.96 39 13 39 C13 43.90979053 11.94086056 44.6747008 8.6875 48.1875 C7.88699219 49.06792969 7.08648437 49.94835937 6.26171875 50.85546875 C4 53 4 53 1 54 C-0.75390625 52.9609375 -0.75390625 52.9609375 -2.5625 51.375 C-3.16191406 50.86710937 -3.76132812 50.35921875 -4.37890625 49.8359375 C-7.9187728 45.82693201 -8.27180331 41.57917901 -8.4140625 36.38671875 C-8.45273437 35.13955078 -8.49140625 33.89238281 -8.53125 32.60742188 C-8.5621875 31.31384766 -8.593125 30.02027344 -8.625 28.6875 C-8.66367187 27.37458984 -8.70234375 26.06167969 -8.7421875 24.70898438 C-8.83633117 21.47279563 -8.92196352 18.23661065 -9 15 C-12.7950451 14.62716282 -12.7950451 14.62716282 -14.72949219 16.16674805 C-16.4537199 18.65468538 -16.35770855 20.31986494 -16.328125 23.33203125 C-16.32296875 24.37810547 -16.3178125 25.42417969 -16.3125 26.50195312 C-16.291875 27.59443359 -16.27125 28.68691406 -16.25 29.8125 C-16.24484375 30.89337891 -16.2396875 31.97425781 -16.234375 33.08789062 C-16.19372039 37.22703771 -16.15355394 41.1587501 -15.40869141 45.23950195 C-15 48 -15 48 -16.2578125 49.8984375 C-18.95623412 52.03233577 -21.17900191 53.75370057 -24.5 54.75 C-28.45292019 53.56412394 -31.07603161 50.83127775 -34 48 C-33.47731534 45.23723823 -32.89130413 42.6739124 -32 40 C-31.74205793 36.00424285 -31.76866293 32.00319945 -31.75 28 C-31.729375 26.89398438 -31.70875 25.78796875 -31.6875 24.6484375 C-31.68234375 23.58882812 -31.6771875 22.52921875 -31.671875 21.4375 C-31.6625293 20.46683594 -31.65318359 19.49617188 -31.64355469 18.49609375 C-32.05929572 15.5847675 -32.69581302 14.75583816 -35 13 C-35.66 12.67 -36.32 12.34 -37 12 C-35.55575365 8.76138697 -33.74227753 6.38030837 -31.375 3.75 C-30.42753906 2.69039062 -30.42753906 2.69039062 -29.4609375 1.609375 C-28.97882813 1.07828125 -28.49671875 0.5471875 -28 0 C-23.44310722 0.54376368 -23.44310722 0.54376368 -21.41796875 2.62890625 C-20.80888672 3.58603516 -20.80888672 3.58603516 -20.1875 4.5625 C-19.55908203 5.52349609 -19.55908203 5.52349609 -18.91796875 6.50390625 C-18.61503906 6.99761719 -18.31210937 7.49132813 -18 8 C-14.40642281 7.43009348 -12.82750729 6.13617523 -10.375 3.5 C-6.75442396 -0.35773167 -5.29127877 -1.56333236 0 0 Z " fill="#E0E0E0" transform="translate(325,50)"/>
<path d="M0 0 C1.67835938 0.62455078 1.67835938 0.62455078 3.390625 1.26171875 C4.51984375 1.67035156 5.6490625 2.07898437 6.8125 2.5 C9.640625 3.94921875 9.640625 3.94921875 11.15625 5.8671875 C11.640625 7.94921875 11.640625 7.94921875 10.68310547 9.71313477 C9.35904922 12.55318891 9.41340994 14.68214309 9.4453125 17.80859375 C9.45498047 19.48115234 9.45498047 19.48115234 9.46484375 21.1875 C9.48160156 22.34636719 9.49835938 23.50523438 9.515625 24.69921875 C9.52464844 25.87355469 9.53367187 27.04789063 9.54296875 28.2578125 C9.56652437 31.15515411 9.59941848 34.05208316 9.640625 36.94921875 C11.290625 36.94921875 12.940625 36.94921875 14.640625 36.94921875 C15.44921875 38.58984375 15.44921875 38.58984375 15.640625 40.94921875 C14.05491839 43.07139807 12.54772242 44.83257435 10.703125 46.69921875 C10.22166016 47.20582031 9.74019531 47.71242187 9.24414062 48.234375 C8.05408546 49.48334379 6.84875887 50.71772905 5.640625 51.94921875 C1.78959199 51.41245972 0.32264913 49.83320952 -2.109375 46.88671875 C-3.02976562 45.78650391 -3.02976562 45.78650391 -3.96875 44.6640625 C-4.42765625 44.09816406 -4.8865625 43.53226563 -5.359375 42.94921875 C-10.2816988 44.68702841 -13.9273712 47.45595143 -18.0546875 50.5859375 C-18.81523437 51.03582031 -19.57578125 51.48570313 -20.359375 51.94921875 C-23.359375 50.94921875 -23.359375 50.94921875 -24.9296875 48.1484375 C-25.69925781 46.41013672 -25.69925781 46.41013672 -26.484375 44.63671875 C-27.00257813 43.48558594 -27.52078125 42.33445313 -28.0546875 41.1484375 C-30.91248556 34.14084286 -31.71936749 26.66756004 -29.59375 19.29296875 C-24.10425212 7.07690305 -13.56321241 -4.24244667 0 0 Z M-13.359375 8.94921875 C-16.89728385 12.62320102 -17.21600034 16.15703549 -17.609375 21.07421875 C-17.24413804 26.73539164 -16.50143413 33.80715962 -12.359375 37.94921875 C-9.81451828 37.78503445 -8.64049501 37.20696937 -6.76171875 35.484375 C-4.61188936 31.59791462 -4.84612163 27.88201814 -4.859375 23.51171875 C-4.83101563 22.66544922 -4.80265625 21.81917969 -4.7734375 20.94726562 C-4.75939891 16.46544474 -4.92142797 14.52803875 -7.703125 10.8515625 C-10.22134507 8.65809094 -10.22134507 8.65809094 -13.359375 8.94921875 Z " fill="#DBDBDB" transform="translate(272.359375,52.05078125)"/>
<path d="M0 0 C1.1171875 1.828125 1.1171875 1.828125 1.875 4.25 C3.41530095 8.73612653 5.43017799 12.49893842 7.875 16.5625 C11.61171241 23.50905648 11.61171241 23.50905648 11.0625 27.5 C8.95689439 33.53976346 4.42586978 38.55925101 0.34912109 43.39111328 C-0.94494372 44.93434294 -2.19815753 46.51155121 -3.44921875 48.08984375 C-4.20847656 49.00894531 -4.96773437 49.92804688 -5.75 50.875 C-6.42546875 51.69742188 -7.1009375 52.51984375 -7.796875 53.3671875 C-10 55 -10 55 -12.8125 54.94140625 C-16.40699368 53.87979721 -19.82699918 52.5745671 -23.25 51.0625 C-23.87390625 50.79759766 -24.4978125 50.53269531 -25.140625 50.25976562 C-27.86246154 49.07776118 -29.88304323 48.11695677 -32 46 C-31.7282197 43.99070993 -31.38502954 41.99069419 -31 40 C-30.94472064 38.05284654 -30.93686877 36.10385922 -30.97265625 34.15625 C-30.98490234 33.07472656 -30.99714844 31.99320313 -31.00976562 30.87890625 C-31.04492288 28.62623775 -31.08398573 26.37362682 -31.12695312 24.12109375 C-31.23285466 13.66798885 -31.23285466 13.66798885 -29 9 C-25.70269805 5.70269805 -21.31985652 4.60484683 -17 3 C-15.95972656 2.60941406 -14.91945313 2.21882813 -13.84765625 1.81640625 C-12.28337891 1.25759766 -12.28337891 1.25759766 -10.6875 0.6875 C-9.72199219 0.34074219 -8.75648438 -0.00601563 -7.76171875 -0.36328125 C-4.68435006 -1.07277361 -2.94917209 -1.13586421 0 0 Z M-15 9 C-17.76708094 11.76708094 -16.28498625 20.08713768 -16.3125 23.8125 C-16.34150391 25.10994141 -16.37050781 26.40738281 -16.40039062 27.74414062 C-16.40876953 28.99001953 -16.41714844 30.23589844 -16.42578125 31.51953125 C-16.44036377 32.66526611 -16.45494629 33.81100098 -16.4699707 34.99145508 C-15.89970709 38.64203091 -14.88749429 39.77146785 -12 42 C-9.45948786 42.97610842 -9.45948786 42.97610842 -7 43 C-3.95008803 39.95008803 -3.74470421 36.45935125 -3.4375 32.25 C-3.45287096 26.5781164 -5.32025532 22.34949149 -7.8125 17.375 C-8.16820068 16.66375977 -8.52390137 15.95251953 -8.89038086 15.21972656 C-10.97851393 11.05460247 -10.97851393 11.05460247 -15 9 Z " fill="#D8D8D8" transform="translate(527,50)"/>
<path d="M0 0 C-1.36370299 2.99220268 -2.94908083 5.29026529 -5.125 7.75 C-5.93324219 8.67039062 -5.93324219 8.67039062 -6.7578125 9.609375 C-7.16773438 10.06828125 -7.57765625 10.5271875 -8 11 C-7.01 11.33 -6.02 11.66 -5 12 C-3.9407082 15.17787541 -3.88541061 17.42588943 -3.90234375 20.76171875 C-3.90556641 21.87998047 -3.90878906 22.99824219 -3.91210938 24.15039062 C-3.92048828 25.31763672 -3.92886719 26.48488281 -3.9375 27.6875 C-3.94201172 28.86634766 -3.94652344 30.04519531 -3.95117188 31.25976562 C-3.96296727 34.17322789 -3.9794273 37.08658863 -4 40 C-4.33 40 -4.66 40 -5 40 C-5.01458252 39.2886792 -5.02916504 38.5773584 -5.04418945 37.84448242 C-5.11861006 34.62493668 -5.21529 31.40643482 -5.3125 28.1875 C-5.33505859 27.06794922 -5.35761719 25.94839844 -5.38085938 24.79492188 C-5.4340332 23.18520508 -5.4340332 23.18520508 -5.48828125 21.54296875 C-5.51446533 20.55321045 -5.54064941 19.56345215 -5.56762695 18.54370117 C-6.06176373 15.63663677 -6.6902431 14.76320293 -9 13 C-9.66 12.67 -10.32 12.34 -11 12 C-9.56438314 8.81293058 -7.79733671 6.37830895 -5.5 3.75 C-4.8915625 3.04359375 -4.283125 2.3371875 -3.65625 1.609375 C-2 0 -2 0 0 0 Z " fill="#A2A2A2" transform="translate(299,50)"/>
<path d="M0 0 C-2.02002081 2.02002081 -6.02648589 1.36837729 -8.8125 1.5 C-15.06055326 1.5203349 -15.06055326 1.5203349 -21 3 C-22.07411553 4.85596575 -22.07411553 4.85596575 -23 7 C-24.7265625 8.921875 -24.7265625 8.921875 -26.625 10.75 C-27.57246094 11.67039062 -27.57246094 11.67039062 -28.5390625 12.609375 C-29.02117187 13.06828125 -29.50328125 13.5271875 -30 14 C-30.33 13.01 -30.66 12.02 -31 11 C-22.69945695 0.11786257 -22.69945695 0.11786257 -15.58984375 -0.98828125 C-10.32202952 -1.42777898 -5.05755903 -1.68585301 0 0 Z " fill="#C7C7C7" transform="translate(202,25)"/>
<path d="M0 0 C0.66 0.33 1.32 0.66 2 1 C-0.45023758 3.50804718 -2.91147598 6.0050076 -5.375 8.5 C-6.42300781 9.57314453 -6.42300781 9.57314453 -7.4921875 10.66796875 C-8.1625 11.34472656 -8.8328125 12.02148438 -9.5234375 12.71875 C-10.14138184 13.34716797 -10.75932617 13.97558594 -11.39599609 14.62304688 C-13 16 -13 16 -15 16 C-13.48625275 12.42723096 -11.38105612 10.14319629 -8.625 7.4375 C-7.85414063 6.67308594 -7.08328125 5.90867187 -6.2890625 5.12109375 C-4.27286711 3.25284444 -2.23393837 1.59639888 0 0 Z " fill="#B9B9B9" transform="translate(261,51)"/>
<path d="M0 0 C0.66 0.33 1.32 0.66 2 1 C-2.62 5.62 -7.24 10.24 -12 15 C-12.66 14.67 -13.32 14.34 -14 14 C-9.61932717 8.89662734 -5.32423478 4.12628195 0 0 Z " fill="#AEAEAE" transform="translate(359,51)"/>
<path d="M0 0 C-2.02002081 2.02002081 -6.02648589 1.36837729 -8.8125 1.5 C-14.98352301 1.72267876 -14.98352301 1.72267876 -21 3 C-20.67 2.01 -20.34 1.02 -20 0 C-17.22949974 -0.1946838 -14.45886998 -0.38102792 -11.6875 -0.5625 C-10.90181641 -0.61857422 -10.11613281 -0.67464844 -9.30664062 -0.73242188 C-8.1706543 -0.80493164 -8.1706543 -0.80493164 -7.01171875 -0.87890625 C-6.31522217 -0.9260376 -5.61872559 -0.97316895 -4.90112305 -1.02172852 C-3 -1 -3 -1 0 0 Z " fill="#6D6D6D" transform="translate(202,25)"/>
<path d="M0 0 C4.70588235 0.70588235 4.70588235 0.70588235 6 2 C6.04092937 4.33297433 6.04241723 6.66705225 6 9 C4.5 7.75 4.5 7.75 3 6 C3 4.68 3 3.36 3 2 C1.68 1.67 0.36 1.34 -1 1 C-0.67 0.67 -0.34 0.34 0 0 Z " fill="#606060" transform="translate(219,23)"/>
<path d="M0 0 C2.58243688 2.58243688 3.19358727 4.43834377 4 8 C3.125 11.875 3.125 11.875 2 15 C1.67 15 1.34 15 1 15 C0.67 10.05 0.34 5.1 0 0 Z " fill="#818181" transform="translate(534,67)"/>
<path d="M0 0 C2.0625 0.4375 2.0625 0.4375 4 1 C3.67 2.32 3.34 3.64 3 5 C2.34 4.01 1.68 3.02 1 2 C-0.65 3.65 -2.3 5.3 -4 7 C-4.66 6.67 -5.32 6.34 -6 6 C-4 4 -2 2 0 0 Z " fill="#A2A2A2" transform="translate(548,47)"/>
<path d="M0 0 C2 2 2 2 2.125 5.625 C2.08375 6.73875 2.0425 7.8525 2 9 C3.65 8.67 5.3 8.34 7 8 C6.67 8.66 6.34 9.32 6 10 C2.9375 10.625 2.9375 10.625 0 11 C0 7.37 0 3.74 0 0 Z " fill="#6E6E6E" transform="translate(207,47)"/>
<path d="M0 0 C3.63 0 7.26 0 11 0 C11 0.33 11 0.66 11 1 C7.37 1 3.74 1 0 1 C0 0.67 0 0.34 0 0 Z " fill="#5B5B5B" transform="translate(398,8)"/>
<path d="" fill="#878787" transform="translate(0,0)"/>
<path d="" fill="#FFFFFF" transform="translate(0,0)"/>
</svg>
